<svg version="1.1" id="Layer_1" xmlns="http://www.w3.org/2000/svg" xmlns:xlink="http://www.w3.org/1999/xlink" x="0px" y="0px"
	 width="100%" viewBox="0 0 256 256" enable-background="new 0 0 256 256" xml:space="preserve">
<path fill="#000000" opacity="1.000000" stroke="none" 
	d="
M257.000000,85.000000 
	C257.000000,142.666672 257.000000,199.833328 257.000000,257.000000 
	C171.666672,257.000000 86.333336,257.000000 1.000000,257.000000 
	C1.000000,171.666672 1.000000,86.333336 1.000000,1.000000 
	C86.333336,1.000000 171.666672,1.000000 257.000000,1.000000 
	C257.000000,28.833334 257.000000,56.666668 257.000000,85.000000 
M131.907791,243.939987 
	C135.267273,243.902023 138.626755,243.864059 142.882263,243.933975 
	C145.587219,243.899323 148.292175,243.864685 151.868179,243.931549 
	C153.913132,243.897476 155.958084,243.863388 158.873093,243.924438 
	C160.914230,243.893723 162.955383,243.863007 165.891068,243.933823 
	C168.592316,243.901779 171.293579,243.869736 174.899170,243.931412 
	C177.930450,243.901520 180.961731,243.871628 184.904633,243.930389 
	C188.266739,243.904221 191.628830,243.878052 195.904968,243.935532 
	C199.267731,243.911819 202.630493,243.888107 206.907028,243.939163 
	C210.265274,243.918320 213.623535,243.897476 217.899002,243.943497 
	C221.263580,243.929153 224.628174,243.914795 228.927948,243.955704 
	C232.867599,243.955460 236.807510,243.926544 240.746796,243.964569 
	C243.596176,243.992065 244.993744,242.675629 244.961136,239.795578 
	C244.912811,235.528503 244.918076,231.260818 244.936630,226.078262 
	C244.916641,222.712860 244.896637,219.347443 244.923889,215.068878 
	C244.904480,211.710770 244.885086,208.352646 244.920868,204.080093 
	C244.897903,200.717377 244.874939,197.354675 244.920502,193.080521 
	C244.894440,189.717712 244.868378,186.354904 244.919083,182.086548 
	C244.891968,179.056335 244.864838,176.026138 244.925003,172.100876 
	C244.894501,169.399078 244.863998,166.697281 244.920319,163.098038 
	C244.889694,160.396484 244.859070,157.694916 244.918976,154.088699 
	C244.889313,151.057571 244.859665,148.026459 244.924728,144.090622 
	C244.892532,141.057129 244.860336,138.023636 244.923553,134.079010 
	C244.892654,130.716980 244.861755,127.354942 244.933151,123.084648 
	C244.898956,119.718605 244.864746,116.352562 244.933075,112.071220 
	C244.899384,108.377541 244.865692,104.683853 244.937958,100.087639 
	C244.902695,97.056236 244.867416,94.024826 244.943527,90.090836 
	C244.905884,87.056511 244.868240,84.022179 244.943481,80.073601 
	C244.906647,76.379242 244.869797,72.684891 244.948380,68.076164 
	C244.909790,64.380592 244.871201,60.685024 244.949692,56.059933 
	C244.911011,47.037430 244.872314,38.014927 244.954666,28.064390 
	C244.954666,22.832651 244.954666,17.600912 244.954666,12.166253 
	C240.881607,12.166253 237.437363,12.166253 233.064026,12.041940 
	C225.707138,12.083613 218.350250,12.125288 210.064331,12.041059 
	C201.707199,12.082721 193.350052,12.124383 184.063995,12.039587 
	C175.373779,12.081651 166.683563,12.123714 157.064590,12.037511 
	C148.040146,12.080451 139.015701,12.123391 129.062897,12.037189 
	C119.039459,12.080148 109.016014,12.123106 98.064224,12.035443 
	C88.373810,12.079087 78.683403,12.122730 68.064850,12.033623 
	C59.041340,12.077872 50.017830,12.122123 40.066334,12.031115 
	C31.141703,12.031115 22.217070,12.031115 13.166398,12.031115 
	C13.166398,21.740530 13.166398,30.867361 13.020432,40.922203 
	C13.069079,49.945740 13.117727,58.969276 13.020447,68.921005 
	C13.068986,78.611504 13.117524,88.302010 13.021168,98.920876 
	C13.069634,108.944412 13.118101,118.967949 13.023299,129.920258 
	C13.071105,138.944382 13.118912,147.968521 13.026327,157.921448 
	C13.073157,164.612534 13.119987,171.303635 13.029267,178.923035 
	C13.075085,184.946732 13.120903,190.970444 13.030074,197.915497 
	C13.075409,202.275848 13.120745,206.636215 13.032958,211.924606 
	C13.077308,217.614166 13.121657,223.303726 13.030038,229.919189 
	C13.030038,234.486649 13.030038,239.054092 13.030038,243.833466 
	C18.455500,243.833466 23.223419,243.833466 28.921152,243.969116 
	C38.942665,243.923126 48.964180,243.877151 59.911060,243.966919 
	C64.602646,243.921478 69.294235,243.876053 74.905807,243.962341 
	C78.933731,243.918594 82.961662,243.874832 87.899628,243.956955 
	C91.264008,243.914337 94.628395,243.871735 98.902641,243.950180 
	C102.264137,243.909592 105.625626,243.869003 109.903053,243.949829 
	C113.598015,243.910538 117.292984,243.871246 121.891464,243.948151 
	C124.926720,243.909409 127.961967,243.870667 131.907791,243.939987 
z"/>
<path fill="#C44643" opacity="1.000000" stroke="none" 
	d="
M13.166080,210.996567 
	C13.120745,206.636215 13.075409,202.275848 13.412489,197.349976 
	C15.221476,195.664597 16.781267,194.678116 18.055302,193.405533 
	C59.139923,152.367706 100.207245,111.312538 141.219437,70.202385 
	C142.807449,68.610580 143.826614,66.451279 145.433578,64.709312 
	C150.928543,68.856262 156.100739,72.850311 160.951157,77.009872 
	C158.787857,78.582443 156.759003,79.801750 155.132523,81.424370 
	C123.645699,112.836151 92.192833,144.282043 60.794666,175.782410 
	C59.203285,177.378967 58.167061,179.528885 56.501305,181.323822 
	C53.673683,180.374832 51.245956,179.424576 48.753532,178.695480 
	C45.326607,177.693039 43.095459,179.934586 43.168579,184.031677 
	C35.014648,191.861694 27.237263,199.578003 19.286989,207.111893 
	C17.565496,208.743210 15.222700,209.718887 13.166080,210.996567 
z"/>
<path fill="#DE4D50" opacity="1.000000" stroke="none" 
	d="
M98.992577,12.166064 
	C109.016014,12.123106 119.039459,12.080148 129.422806,12.416035 
	C127.761215,15.123975 125.712646,17.430250 123.724922,19.787819 
	C121.124268,22.872349 118.571716,25.997427 115.632721,29.256638 
	C106.623840,31.543617 97.953522,33.579750 89.369751,35.931786 
	C88.210945,36.249306 86.650452,38.247265 86.767006,39.302399 
	C86.924240,40.725842 88.251770,42.514240 89.570259,43.205856 
	C91.870384,44.412369 94.546875,44.901363 96.888733,45.993141 
	C95.975471,47.193008 95.309273,48.160915 94.492554,48.978458 
	C68.754021,74.743004 43.009396,100.501472 17.221655,126.216705 
	C16.081444,127.353722 14.527690,128.076019 13.166567,128.991486 
	C13.118101,118.967949 13.069634,108.944412 13.438149,98.412109 
	C15.616014,96.722687 17.626331,95.792465 19.100672,94.324089 
	C44.605980,68.921967 70.065918,43.474110 95.448914,17.949869 
	C97.000198,16.389946 97.828102,14.110649 98.992577,12.166064 
z"/>
<path fill="#D64B4C" opacity="1.000000" stroke="none" 
	d="
M13.094933,129.455872 
	C14.527690,128.076019 16.081444,127.353722 17.221655,126.216705 
	C43.009396,100.501472 68.754021,74.743004 94.492554,48.978458 
	C95.309273,48.160915 95.975471,47.193008 97.285751,46.051636 
	C104.922173,47.798073 111.984680,49.788074 118.867836,52.072739 
	C117.825630,53.377228 117.026718,54.450939 116.090683,55.387623 
	C83.270737,88.230118 50.445316,121.067154 17.578684,153.862885 
	C16.320133,155.118713 14.646779,155.958817 13.166718,156.992645 
	C13.118912,147.968521 13.071105,138.944382 13.094933,129.455872 
z"/>
<path fill="#CA4846" opacity="1.000000" stroke="none" 
	d="
M145.110825,64.556412 
	C143.826614,66.451279 142.807449,68.610580 141.219437,70.202385 
	C100.207245,111.312538 59.139923,152.367706 18.055302,193.405533 
	C16.781267,194.678116 15.221476,195.664597 13.480812,196.889297 
	C13.120903,190.970444 13.075085,184.946732 13.412130,178.353943 
	C15.341059,176.545425 17.020027,175.439102 18.413792,174.047180 
	C55.311768,137.198044 92.190521,100.329651 129.019348,63.411457 
	C130.617294,61.809631 131.710205,59.703995 133.383789,57.921616 
	C137.523071,60.192261 141.316940,62.374336 145.110825,64.556412 
z"/>
<path fill="#CF4948" opacity="1.000000" stroke="none" 
	d="
M133.038391,57.833054 
	C131.710205,59.703995 130.617294,61.809631 129.019348,63.411457 
	C92.190521,100.329651 55.311768,137.198044 18.413792,174.047180 
	C17.020027,175.439102 15.341059,176.545425 13.480906,177.889771 
	C13.119987,171.303635 13.073157,164.612534 13.096521,157.457047 
	C14.646779,155.958817 16.320133,155.118713 17.578684,153.862885 
	C50.445316,121.067154 83.270737,88.230118 116.090683,55.387623 
	C117.026718,54.450939 117.825630,53.377228 119.240799,52.139153 
	C124.208214,53.884949 128.623306,55.859001 133.038391,57.833054 
z"/>
<path fill="#E74F55" opacity="1.000000" stroke="none" 
	d="
M98.528397,12.100754 
	C97.828102,14.110649 97.000198,16.389946 95.448914,17.949869 
	C70.065918,43.474110 44.605980,68.921967 19.100672,94.324089 
	C17.626331,95.792465 15.616014,96.722687 13.510597,97.947929 
	C13.117524,88.302010 13.068986,78.611504 13.407690,68.352386 
	C14.982242,66.902351 16.300835,66.152657 17.337227,65.119797 
	C33.664711,48.847927 49.969238,32.552906 66.226616,16.211050 
	C67.359390,15.072391 68.080460,13.524149 68.992989,12.166374 
	C78.683403,12.122730 88.373810,12.079087 98.528397,12.100754 
z"/>
<path fill="#F05159" opacity="1.000000" stroke="none" 
	d="
M68.528915,12.099998 
	C68.080460,13.524149 67.359390,15.072391 66.226616,16.211050 
	C49.969238,32.552906 33.664711,48.847927 17.337227,65.119797 
	C16.300835,66.152657 14.982242,66.902351 13.480654,67.888290 
	C13.117727,58.969276 13.069079,49.945740 13.407677,40.353447 
	C21.259846,32.626659 28.775166,25.519949 36.154175,18.274414 
	C37.993423,16.468431 39.392776,14.214445 40.994320,12.166373 
	C50.017830,12.122123 59.041340,12.077872 68.528915,12.099998 
z"/>
<path fill="#BA443E" opacity="1.000000" stroke="none" 
	d="
M233.993134,12.166254 
	C237.437363,12.166253 240.881607,12.166253 244.954666,12.166253 
	C244.954666,17.600912 244.954666,22.832651 244.580399,28.635509 
	C231.733871,41.614216 219.261612,54.021801 206.523880,66.205750 
	C202.817184,62.052948 199.375961,58.123779 196.023895,53.840919 
	C197.585037,51.315514 198.770081,48.862610 200.576813,47.018944 
	C210.361679,37.034126 220.328400,27.227743 230.155899,17.284214 
	C231.640854,15.781704 232.724075,13.882149 233.993134,12.166254 
z"/>
<path fill="#BB443E" opacity="1.000000" stroke="none" 
	d="
M27.991337,243.833466 
	C23.223419,243.833466 18.455500,243.833466 13.030038,243.833466 
	C13.030038,239.054092 13.030038,234.486649 13.442442,229.411499 
	C15.607744,227.731064 17.596411,226.798355 19.074869,225.346191 
	C27.944910,216.633865 36.660290,207.764114 45.523903,199.045135 
	C47.134411,197.460922 49.190510,196.329681 51.293022,195.208771 
	C54.803207,199.703583 58.061268,203.978958 61.131088,208.586548 
	C51.340832,218.733627 41.710762,228.521347 32.164577,238.390213 
	C30.585443,240.022736 29.373158,242.010086 27.991337,243.833466 
z"/>
<path fill="#B2423A" opacity="1.000000" stroke="none" 
	d="
M206.789352,66.429390 
	C219.261612,54.021801 231.733871,41.614216 244.519867,29.099527 
	C244.872314,38.014927 244.911011,47.037430 244.577576,56.632240 
	C237.042221,64.064148 229.924255,70.972092 222.683350,77.748680 
	C220.913498,79.405029 218.740875,80.631012 216.520691,81.819366 
	C213.121750,76.532372 209.955551,71.480881 206.789352,66.429390 
z"/>
<path fill="#B2423A" opacity="1.000000" stroke="none" 
	d="
M28.456245,243.901291 
	C29.373158,242.010086 30.585443,240.022736 32.164577,238.390213 
	C41.710762,228.521347 51.340832,218.733627 61.435730,208.770538 
	C67.770599,213.000565 73.612602,217.378815 79.146515,221.951324 
	C72.917595,227.915756 66.937149,233.627075 61.129654,239.509155 
	C60.056610,240.595978 59.682430,242.372818 58.985695,243.831177 
	C48.964180,243.877151 38.942665,243.923126 28.456245,243.901291 
z"/>
<path fill="#C04641" opacity="1.000000" stroke="none" 
	d="
M233.528580,12.104097 
	C232.724075,13.882149 231.640854,15.781704 230.155899,17.284214 
	C220.328400,27.227743 210.361679,37.034126 200.576813,47.018944 
	C198.770081,48.862610 197.585037,51.315514 195.730255,53.669899 
	C191.234924,50.503254 187.122360,47.153934 183.055038,43.461868 
	C184.268509,41.377991 185.205475,39.411537 186.644577,37.934258 
	C193.313797,31.088144 200.164307,24.418833 206.850159,17.588591 
	C208.429352,15.975311 209.622589,13.984245 210.993362,12.166965 
	C218.350250,12.125288 225.707138,12.083613 233.528580,12.104097 
z"/>
<path fill="#4F1D2D" opacity="1.000000" stroke="none" 
	d="
M173.994827,243.837692 
	C171.293579,243.869736 168.592316,243.901779 165.550186,243.571381 
	C166.323700,241.788208 167.312286,240.243134 168.573257,238.967239 
	C175.791122,231.663879 183.157181,224.505325 190.300339,217.130447 
	C194.047440,213.261795 197.442413,209.052094 201.304840,204.869385 
	C203.776779,202.959610 206.093765,201.331955 208.078125,199.368179 
	C218.668793,188.887329 229.150467,178.296356 239.742004,167.816376 
	C241.236343,166.337769 243.126511,165.259201 244.833481,163.995483 
	C244.863998,166.697281 244.894501,169.399078 244.569855,172.654846 
	C242.905106,174.210876 241.463058,175.080109 240.305588,176.234634 
	C219.217422,197.269012 198.152008,218.326309 177.130722,239.427490 
	C175.875015,240.687943 175.030609,242.358154 173.994827,243.837692 
z"/>
<path fill="#3E162C" opacity="1.000000" stroke="none" 
	d="
M194.990936,243.851898 
	C191.628830,243.878052 188.266739,243.904221 184.540756,243.559357 
	C185.582840,241.161392 186.725021,238.872833 188.435699,237.148132 
	C204.980881,220.467285 221.585876,203.845123 238.285797,187.319382 
	C240.111191,185.513031 242.639847,184.417374 244.842316,182.992096 
	C244.868378,186.354904 244.894440,189.717712 244.574844,193.642899 
	C243.039520,195.084671 241.717163,195.830826 240.680191,196.863571 
	C226.340607,211.144257 212.025040,225.449249 197.759262,239.803604 
	C196.626022,240.943893 195.904037,242.492859 194.990936,243.851898 
z"/>
<path fill="#C74744" opacity="1.000000" stroke="none" 
	d="
M210.528839,12.104013 
	C209.622589,13.984245 208.429352,15.975311 206.850159,17.588591 
	C200.164307,24.418833 193.313797,31.088144 186.644577,37.934258 
	C185.205475,39.411537 184.268509,41.377991 182.745590,43.341965 
	C177.209366,40.543354 172.027817,37.521896 166.950226,34.141247 
	C171.780350,28.610233 176.589645,23.510708 181.186279,18.226204 
	C182.733109,16.447914 183.739517,14.199556 184.992920,12.166042 
	C193.350052,12.124383 201.707199,12.082721 210.528839,12.104013 
z"/>
<path fill="#471A2D" opacity="1.000000" stroke="none" 
	d="
M244.880707,182.539307 
	C242.639847,184.417374 240.111191,185.513031 238.285797,187.319382 
	C221.585876,203.845123 204.980881,220.467285 188.435699,237.148132 
	C186.725021,238.872833 185.582840,241.161392 184.084946,243.515015 
	C180.961731,243.871628 177.930450,243.901520 174.446991,243.884552 
	C175.030609,242.358154 175.875015,240.687943 177.130722,239.427490 
	C198.152008,218.326309 219.217422,197.269012 240.305588,176.234634 
	C241.463058,175.080109 242.905106,174.210876 244.526199,173.102386 
	C244.864838,176.026138 244.891968,179.056335 244.880707,182.539307 
z"/>
<path fill="#C14642" opacity="1.000000" stroke="none" 
	d="
M51.040901,194.989334 
	C49.190510,196.329681 47.134411,197.460922 45.523903,199.045135 
	C36.660290,207.764114 27.944910,216.633865 19.074869,225.346191 
	C17.596411,226.798355 15.607744,227.731064 13.510426,228.948547 
	C13.121657,223.303726 13.077308,217.614166 13.099519,211.460587 
	C15.222700,209.718887 17.565496,208.743210 19.286989,207.111893 
	C27.237263,199.578003 35.014648,191.861694 43.386742,184.259064 
	C46.293289,187.868027 48.667095,191.428680 51.040901,194.989334 
z"/>
<path fill="#CE4948" opacity="1.000000" stroke="none" 
	d="
M184.528458,12.102814 
	C183.739517,14.199556 182.733109,16.447914 181.186279,18.226204 
	C176.589645,23.510708 171.780350,28.610233 166.584656,34.003433 
	C158.744308,32.760796 151.373505,31.296778 144.108337,29.518658 
	C147.191513,25.920866 150.283585,22.731916 153.105652,19.319658 
	C154.938538,17.103458 156.377747,14.561683 157.993347,12.165779 
	C166.683563,12.123714 175.373779,12.081651 184.528458,12.102814 
z"/>
<path fill="#34132A" opacity="1.000000" stroke="none" 
	d="
M195.447952,243.893707 
	C195.904037,242.492859 196.626022,240.943893 197.759262,239.803604 
	C212.025040,225.449249 226.340607,211.144257 240.680191,196.863571 
	C241.717163,195.830826 243.039520,195.084671 244.540573,194.098618 
	C244.874939,197.354675 244.897903,200.717377 244.581116,204.642944 
	C243.289322,205.849472 242.205643,206.360764 241.405121,207.156815 
	C230.370300,218.129715 219.356796,229.124283 208.398468,240.173462 
	C207.385773,241.194550 206.785187,242.624359 205.993256,243.864395 
	C202.630493,243.888107 199.267731,243.911819 195.447952,243.893707 
z"/>
<path fill="#D64B4C" opacity="1.000000" stroke="none" 
	d="
M157.528961,12.101645 
	C156.377747,14.561683 154.938538,17.103458 153.105652,19.319658 
	C150.283585,22.731916 147.191513,25.920866 143.683899,29.547415 
	C134.102020,29.628536 125.050247,29.366800 115.998474,29.105062 
	C118.571716,25.997427 121.124268,22.872349 123.724922,19.787819 
	C125.712646,17.430250 127.761215,15.123975 129.886993,12.480606 
	C139.015701,12.123391 148.040146,12.080451 157.528961,12.101645 
z"/>
<path fill="#F7535D" opacity="1.000000" stroke="none" 
	d="
M40.530327,12.098743 
	C39.392776,14.214445 37.993423,16.468431 36.154175,18.274414 
	C28.775166,25.519949 21.259846,32.626659 13.480659,39.889442 
	C13.166398,30.867361 13.166398,21.740530 13.166398,12.031115 
	C22.217070,12.031115 31.141703,12.031115 40.530327,12.098743 
z"/>
<path fill="#56202F" opacity="1.000000" stroke="none" 
	d="
M244.876892,163.546753 
	C243.126511,165.259201 241.236343,166.337769 239.742004,167.816376 
	C229.150467,178.296356 218.668793,188.887329 208.078125,199.368179 
	C206.093765,201.331955 203.776779,202.959610 201.104614,204.686493 
	C200.462463,204.508682 200.328979,204.386749 200.376709,203.980225 
	C206.215500,195.071609 211.873108,186.447571 217.890930,177.772369 
	C219.747452,176.733017 221.439636,175.947128 222.705856,174.721283 
	C227.955307,169.639130 232.980515,164.322678 238.295776,159.312576 
	C240.167450,157.548340 242.633667,156.414841 244.828445,154.993347 
	C244.859070,157.694916 244.889694,160.396484 244.876892,163.546753 
z"/>
<path fill="#2B0F2A" opacity="1.000000" stroke="none" 
	d="
M206.450134,243.901779 
	C206.785187,242.624359 207.385773,241.194550 208.398468,240.173462 
	C219.356796,229.124283 230.370300,218.129715 241.405121,207.156815 
	C242.205643,206.360764 243.289322,205.849472 244.553513,205.100159 
	C244.885086,208.352646 244.904480,211.710770 244.557404,215.574585 
	C242.913284,216.777191 241.396362,217.229950 240.396347,218.210114 
	C233.216705,225.247223 226.092865,232.343658 219.086578,239.552704 
	C218.025436,240.644577 217.665863,242.418304 216.981781,243.876617 
	C213.623535,243.897476 210.265274,243.918320 206.450134,243.901779 
z"/>
<path fill="#A73E37" opacity="1.000000" stroke="none" 
	d="
M216.753433,82.054871 
	C218.740875,80.631012 220.913498,79.405029 222.683350,77.748680 
	C229.924255,70.972092 237.042221,64.064148 244.519043,57.097004 
	C244.871201,60.685024 244.909790,64.380592 244.577118,68.640762 
	C238.828384,74.278954 233.511230,79.418793 228.044586,84.394424 
	C225.771988,86.462906 223.180435,88.180984 220.512604,89.809967 
	C219.112015,87.059311 217.932724,84.557091 216.753433,82.054871 
z"/>
<path fill="#A63E37" opacity="1.000000" stroke="none" 
	d="
M59.448380,243.899048 
	C59.682430,242.372818 60.056610,240.595978 61.129654,239.509155 
	C66.937149,233.627075 72.917595,227.915756 79.458214,222.065018 
	C83.070000,223.649231 86.062004,225.314011 88.775223,227.165741 
	C86.220413,229.512497 83.757507,231.510574 81.714188,233.871735 
	C78.968445,237.044571 76.546661,240.497772 73.985825,243.830627 
	C69.294235,243.876053 64.602646,243.921478 59.448380,243.899048 
z"/>
<path fill="#220C28" opacity="1.000000" stroke="none" 
	d="
M217.440399,243.910065 
	C217.665863,242.418304 218.025436,240.644577 219.086578,239.552704 
	C226.092865,232.343658 233.216705,225.247223 240.396347,218.210114 
	C241.396362,217.229950 242.913284,216.777191 244.533783,216.031174 
	C244.896637,219.347443 244.916641,222.712860 244.603622,226.640259 
	C238.844666,232.768326 233.418701,238.334381 227.992737,243.900436 
	C224.628174,243.914795 221.263580,243.929153 217.440399,243.910065 
z"/>
<path fill="#5E2430" opacity="1.000000" stroke="none" 
	d="
M244.873718,154.541016 
	C242.633667,156.414841 240.167450,157.548340 238.295776,159.312576 
	C232.980515,164.322678 227.955307,169.639130 222.705856,174.721283 
	C221.439636,175.947128 219.747452,176.733017 218.011749,177.418640 
	C219.926987,171.747620 222.081619,166.379166 224.576630,160.963226 
	C228.540070,157.848511 232.106171,154.710434 235.804321,151.736572 
	C238.728775,149.384903 241.815399,147.234894 244.830002,144.995331 
	C244.859665,148.026459 244.889313,151.057571 244.873718,154.541016 
z"/>
<path fill="#9E3B36" opacity="1.000000" stroke="none" 
	d="
M220.733932,90.058411 
	C223.180435,88.180984 225.771988,86.462906 228.044586,84.394424 
	C233.511230,79.418793 238.828384,74.278954 244.519394,69.097946 
	C244.869797,72.684891 244.906647,76.379242 244.543121,80.578720 
	C242.049713,82.601624 239.841980,83.985764 237.886414,85.663795 
	C233.174713,89.706795 228.581039,93.887337 223.717102,97.741196 
	C222.574280,94.999458 221.654114,92.528938 220.733932,90.058411 
z"/>
<path fill="#56202F" opacity="1.000000" stroke="none" 
	d="
M200.796173,204.813507 
	C197.442413,209.052094 194.047440,213.261795 190.300339,217.130447 
	C183.157181,224.505325 175.791122,231.663879 168.573257,238.967239 
	C167.312286,240.243134 166.323700,241.788208 165.102905,243.520630 
	C162.955383,243.863007 160.914230,243.893723 158.543427,243.564957 
	C161.220093,239.892426 164.339325,236.673523 167.201965,233.240646 
	C170.255737,229.578644 173.067078,225.714478 176.211823,221.686279 
	C184.358109,215.710907 192.276794,209.987854 200.195496,204.264801 
	C200.328979,204.386749 200.462463,204.508682 200.796173,204.813507 
z"/>
<path fill="#943735" opacity="1.000000" stroke="none" 
	d="
M223.939758,98.012405 
	C228.581039,93.887337 233.174713,89.706795 237.886414,85.663795 
	C239.841980,83.985764 242.049713,82.601624 244.486694,81.035843 
	C244.868240,84.022179 244.905884,87.056511 244.574432,90.649109 
	C240.464752,94.643616 236.817245,98.189613 232.945969,101.471657 
	C230.884995,103.218948 228.436768,104.509468 226.017548,105.658989 
	C225.227753,102.878693 224.583755,100.445557 223.939758,98.012405 
z"/>
<path fill="#993A36" opacity="1.000000" stroke="none" 
	d="
M74.445816,243.896484 
	C76.546661,240.497772 78.968445,237.044571 81.714188,233.871735 
	C83.757507,231.510574 86.220413,229.512497 89.127251,227.223587 
	C92.173767,228.095688 94.589470,229.096924 96.959938,230.447113 
	C95.774536,232.531860 94.740097,234.349777 93.470261,235.984879 
	C91.390549,238.662811 89.157799,241.221878 86.989586,243.831085 
	C82.961662,243.874832 78.933731,243.918594 74.445816,243.896484 
z"/>
<path fill="#792D32" opacity="1.000000" stroke="none" 
	d="
M244.830536,112.986519 
	C244.864746,116.352562 244.898956,119.718605 244.569138,123.645905 
	C241.185440,126.922424 238.270172,129.767502 235.110443,132.308624 
	C232.898346,134.087631 230.352325,135.451477 227.893005,136.545929 
	C227.909256,132.728790 227.987976,129.366440 228.388168,125.902046 
	C231.555801,123.284241 234.315979,120.661354 237.275146,118.286423 
	C239.669312,116.364914 242.303055,114.741920 244.830536,112.986519 
z"/>
<path fill="#6F2B32" opacity="1.000000" stroke="none" 
	d="
M227.955444,137.000732 
	C230.352325,135.451477 232.898346,134.087631 235.110443,132.308624 
	C238.270172,129.767502 241.185440,126.922424 244.517990,124.100037 
	C244.861755,127.354942 244.892654,130.716980 244.563416,134.642105 
	C240.725037,138.379745 237.352859,141.682678 233.727264,144.678940 
	C231.671783,146.377625 229.200806,147.573563 226.885513,148.548309 
	C227.221207,144.400711 227.588333,140.700714 227.955444,137.000732 
z"/>
<path fill="#833033" opacity="1.000000" stroke="none" 
	d="
M244.881805,112.528870 
	C242.303055,114.741920 239.669312,116.364914 237.275146,118.286423 
	C234.315979,120.661354 231.555801,123.284241 228.305023,125.450653 
	C227.861252,121.746780 227.822098,118.392235 228.124176,114.941818 
	C230.604614,113.102577 232.774673,111.395454 234.875992,109.607552 
	C238.218735,106.763397 241.515686,103.865395 244.832001,100.990173 
	C244.865692,104.683853 244.899384,108.377541 244.881805,112.528870 
z"/>
<path fill="#662630" opacity="1.000000" stroke="none" 
	d="
M226.916946,148.995926 
	C229.200806,147.573563 231.671783,146.377625 233.727264,144.678940 
	C237.352859,141.682678 240.725037,138.379745 244.515717,135.097672 
	C244.860336,138.023636 244.892532,141.057129 244.877365,144.542969 
	C241.815399,147.234894 238.728775,149.384903 235.804321,151.736572 
	C232.106171,154.710434 228.540070,157.848511 224.611176,160.589111 
	C225.175858,156.506958 226.046402,152.751450 226.916946,148.995926 
z"/>
<path fill="#8C3535" opacity="1.000000" stroke="none" 
	d="
M244.884979,100.538902 
	C241.515686,103.865395 238.218735,106.763397 234.875992,109.607552 
	C232.774673,111.395454 230.604614,113.102577 227.987457,114.593239 
	C227.060776,111.562408 226.612061,108.784286 226.163330,106.006149 
	C228.436768,104.509468 230.884995,103.218948 232.945969,101.471657 
	C236.817245,98.189613 240.464752,94.643616 244.518738,91.100403 
	C244.867416,94.024826 244.902695,97.056236 244.884979,100.538902 
z"/>
<path fill="#170827" opacity="1.000000" stroke="none" 
	d="
M228.460342,243.928070 
	C233.418701,238.334381 238.844666,232.768326 244.585571,227.097824 
	C244.918076,231.260818 244.912811,235.528503 244.961136,239.795578 
	C244.993744,242.675629 243.596176,243.992065 240.746796,243.964569 
	C236.807510,243.926544 232.867599,243.955460 228.460342,243.928070 
z"/>
<path fill="#5A222F" opacity="1.000000" stroke="none" 
	d="
M175.984253,221.938568 
	C173.067078,225.714478 170.255737,229.578644 167.201965,233.240646 
	C164.339325,236.673523 161.220093,239.892426 158.108398,243.517395 
	C155.958084,243.863388 153.913132,243.897476 151.539032,243.568634 
	C153.685791,240.424271 156.268814,237.729233 158.603867,234.834198 
	C160.491028,232.494476 162.079376,229.913712 164.082214,227.259247 
	C168.237518,225.365280 172.110886,223.651917 175.984253,221.938568 
z"/>
<path fill="#612530" opacity="1.000000" stroke="none" 
	d="
M163.800262,227.439880 
	C162.079376,229.913712 160.491028,232.494476 158.603867,234.834198 
	C156.268814,237.729233 153.685791,240.424271 151.103516,243.517883 
	C148.292175,243.864685 145.587219,243.899323 142.482971,243.535828 
	C143.996552,239.910278 145.909439,236.682861 148.146088,233.317535 
	C153.580002,231.266388 158.690125,229.353134 163.800262,227.439880 
z"/>
<path fill="#8F3635" opacity="1.000000" stroke="none" 
	d="
M87.444611,243.894012 
	C89.157799,241.221878 91.390549,238.662811 93.470261,235.984879 
	C94.740097,234.349777 95.774536,232.531860 97.346756,230.458328 
	C101.098663,230.931168 104.418518,231.741730 107.411835,232.759277 
	C104.054466,236.587219 101.023621,240.208176 97.992783,243.829117 
	C94.628395,243.871735 91.264008,243.914337 87.444611,243.894012 
z"/>
<path fill="#873435" opacity="1.000000" stroke="none" 
	d="
M98.447708,243.889648 
	C101.023621,240.208176 104.054466,236.587219 107.770607,232.797241 
	C110.638748,233.101883 112.821587,233.575562 114.960144,234.400620 
	C112.939613,237.777481 110.963371,240.802963 108.987122,243.828430 
	C105.625626,243.869003 102.264137,243.909592 98.447708,243.889648 
z"/>
<path fill="#7C2F33" opacity="1.000000" stroke="none" 
	d="
M109.445091,243.889130 
	C110.963371,240.802963 112.939613,237.777481 115.380219,234.378815 
	C119.566917,234.399826 123.289261,234.794037 126.903336,235.500076 
	C124.859375,238.485260 122.923660,241.158615 120.987946,243.831955 
	C117.292984,243.871246 113.598015,243.910538 109.445091,243.889130 
z"/>
<path fill="#6B2932" opacity="1.000000" stroke="none" 
	d="
M147.822327,233.455444 
	C145.909439,236.682861 143.996552,239.910278 142.034943,243.481903 
	C138.626755,243.864059 135.267273,243.902023 131.559311,243.572449 
	C132.809677,240.532654 134.408524,237.860382 136.426392,235.117340 
	C140.504395,234.516205 144.163361,233.985825 147.822327,233.455444 
z"/>
<path fill="#722A31" opacity="1.000000" stroke="none" 
	d="
M136.007370,235.188110 
	C134.408524,237.860382 132.809677,240.532654 131.104034,243.518433 
	C127.961967,243.870667 124.926720,243.909409 121.439705,243.890045 
	C122.923660,241.158615 124.859375,238.485260 127.351334,235.459427 
	C130.607513,235.134003 133.307434,235.161057 136.007370,235.188110 
z"/>
<path fill="#C1B07F" opacity="1.000000" stroke="none" 
	d="
M136.426392,235.117355 
	C133.307434,235.161057 130.607513,235.134003 127.459595,235.147598 
	C123.289261,234.794037 119.566917,234.399826 115.424507,234.027435 
	C112.821587,233.575562 110.638748,233.101883 108.097137,232.590240 
	C104.418518,231.741730 101.098663,230.931168 97.391998,230.109375 
	C94.589470,229.096924 92.173767,228.095688 89.406036,227.036621 
	C86.062004,225.314011 83.070000,223.649231 79.766296,221.870758 
	C73.612602,217.378815 67.770599,213.000565 61.623966,208.438324 
	C58.061268,203.978958 54.803207,199.703583 51.293026,195.208771 
	C48.667095,191.428680 46.293289,187.868027 43.701317,184.079971 
	C43.095459,179.934586 45.326607,177.693039 48.753532,178.695480 
	C51.245956,179.424576 53.673683,180.374832 56.787472,181.517334 
	C65.592514,184.367645 73.740334,186.927094 82.216965,189.636597 
	C91.032387,191.089920 99.518997,192.393219 108.443130,193.759186 
	C112.587440,193.526840 116.294228,193.231796 120.396812,192.962128 
	C125.195801,191.582520 129.598999,190.177551 134.331177,188.686417 
	C146.163986,183.152725 156.363098,175.960342 165.473740,166.987030 
	C171.779297,160.776520 175.803940,153.670395 177.699097,144.793549 
	C178.706741,140.637573 179.559494,136.808151 180.565948,132.618134 
	C181.008270,128.174240 181.296860,124.090935 181.618454,119.609787 
	C181.219772,110.761360 178.718277,102.985184 173.986725,95.570000 
	C169.700134,89.100250 165.486542,82.972305 161.272949,76.844368 
	C156.100739,72.850311 150.928543,68.856262 145.433578,64.709312 
	C141.316940,62.374336 137.523071,60.192261 133.383789,57.921619 
	C128.623306,55.859001 124.208214,53.884949 119.420166,51.844486 
	C111.984680,49.788074 104.922173,47.798073 97.462639,45.749580 
	C94.546875,44.901363 91.870384,44.412369 89.570259,43.205856 
	C88.251770,42.514240 86.924240,40.725842 86.767006,39.302399 
	C86.650452,38.247265 88.210945,36.249306 89.369751,35.931786 
	C97.953522,33.579750 106.623840,31.543617 115.632721,29.256638 
	C125.050247,29.366800 134.102020,29.628536 143.578247,29.861515 
	C151.373505,31.296778 158.744308,32.760796 166.480698,34.362625 
	C172.027817,37.521896 177.209366,40.543354 182.700363,43.684715 
	C187.122360,47.153934 191.234924,50.503254 195.641113,54.023590 
	C199.375961,58.123779 202.817184,62.052948 206.523880,66.205750 
	C209.955551,71.480881 213.121750,76.532372 216.520691,81.819366 
	C217.932724,84.557091 219.112015,87.059311 220.512604,89.809967 
	C221.654114,92.528938 222.574280,94.999458 223.717102,97.741196 
	C224.583755,100.445557 225.227753,102.878693 226.017548,105.658997 
	C226.612061,108.784286 227.060776,111.562408 227.646240,114.689117 
	C227.822098,118.392235 227.861252,121.746780 227.983551,125.552719 
	C227.987976,129.366440 227.909256,132.728790 227.893005,136.545929 
	C227.588333,140.700714 227.221207,144.400711 226.885513,148.548309 
	C226.046402,152.751450 225.175858,156.506958 224.270782,160.636597 
	C222.081619,166.379166 219.926987,171.747620 217.651520,177.469818 
	C211.873108,186.447571 206.215500,195.071609 200.376709,203.980225 
	C192.276794,209.987854 184.358109,215.710907 176.211823,221.686279 
	C172.110886,223.651917 168.237518,225.365280 164.082199,227.259247 
	C158.690125,229.353134 153.580002,231.266388 148.146088,233.317535 
	C144.163361,233.985825 140.504395,234.516205 136.426392,235.117355 
M54.959793,187.555862 
	C54.829021,187.836685 54.698250,188.117508 54.790459,189.050110 
	C57.934990,193.547485 60.454273,198.690796 64.325172,202.437790 
	C90.131432,227.418030 131.780396,237.497025 164.431900,220.723526 
	C181.606171,211.900879 196.358475,201.632507 206.674301,184.767365 
	C222.430313,159.008118 226.096024,131.464859 218.556870,103.075653 
	C212.015854,78.445007 196.634171,59.126709 174.539688,45.792542 
	C169.588882,42.804691 164.307648,39.279488 158.818863,38.484310 
	C145.689926,36.582279 132.359070,35.689133 119.084816,35.342243 
	C112.740547,35.176449 106.339607,37.179367 99.964333,38.200008 
	C100.006905,38.745861 100.049477,39.291714 100.092049,39.837570 
	C102.784401,40.596298 105.536888,41.189682 108.158432,42.143101 
	C118.150368,45.777039 128.471954,48.762608 137.988602,53.391956 
	C158.174789,63.211472 173.171692,78.026123 183.118347,98.829453 
	C191.972412,117.347618 183.738678,157.918900 170.913834,170.268112 
	C146.604828,193.675552 119.857742,206.137878 85.860504,196.848633 
	C75.588371,194.041931 65.437340,190.791977 54.959793,187.555862 
z"/>
<path fill="#BC443F" opacity="1.000000" stroke="none" 
	d="
M81.888153,189.486542 
	C73.740334,186.927094 65.592514,184.367645 57.158524,181.614685 
	C58.167061,179.528885 59.203285,177.378967 60.794666,175.782410 
	C92.192833,144.282043 123.645699,112.836151 155.132523,81.424370 
	C156.759003,79.801750 158.787857,78.582443 160.951157,77.009872 
	C165.486542,82.972305 169.700134,89.100250 173.711472,95.773041 
	C171.783737,97.601891 169.868118,98.695236 168.360947,100.198189 
	C140.673523,127.808235 113.010361,155.442825 85.447708,183.177231 
	C83.806602,184.828552 83.054131,187.363022 81.888153,189.486542 
z"/>
<path fill="#EFFEC8" opacity="1.000000" stroke="none" 
	d="
M55.230839,187.745056 
	C65.437340,190.791977 75.588371,194.041931 85.860504,196.848633 
	C119.857742,206.137878 146.604828,193.675552 170.913834,170.268112 
	C183.738678,157.918900 191.972412,117.347618 183.118347,98.829453 
	C173.171692,78.026123 158.174789,63.211472 137.988602,53.391956 
	C128.471954,48.762608 118.150368,45.777039 108.158432,42.143101 
	C105.536888,41.189682 102.784401,40.596298 100.092049,39.837570 
	C100.049477,39.291714 100.006905,38.745861 99.964333,38.200008 
	C106.339607,37.179367 112.740547,35.176449 119.084816,35.342243 
	C132.359070,35.689133 145.689926,36.582279 158.818863,38.484310 
	C164.307648,39.279488 169.588882,42.804691 174.539688,45.792542 
	C196.634171,59.126709 212.015854,78.445007 218.556870,103.075653 
	C226.096024,131.464859 222.430313,159.008118 206.674301,184.767365 
	C196.358475,201.632507 181.606171,211.900879 164.431900,220.723526 
	C131.780396,237.497025 90.131432,227.418030 64.325172,202.437790 
	C60.454273,198.690796 57.934990,193.547485 54.845955,188.562057 
	C54.901447,188.074005 55.230839,187.745056 55.230839,187.745056 
z"/>
<path fill="#B2423A" opacity="1.000000" stroke="none" 
	d="
M82.216965,189.636597 
	C83.054131,187.363022 83.806602,184.828552 85.447708,183.177231 
	C113.010361,155.442825 140.673523,127.808235 168.360947,100.198189 
	C169.868118,98.695236 171.783737,97.601891 173.784485,96.114838 
	C178.718277,102.985184 181.219772,110.761360 181.293182,119.662613 
	C179.436188,121.096680 177.715881,121.857567 176.471649,123.096542 
	C154.688705,144.787781 132.943039,166.516663 111.274040,188.321625 
	C109.836914,189.767776 109.079292,191.889175 108.005608,193.696503 
	C99.518997,192.393219 91.032387,191.089920 82.216965,189.636597 
z"/>
<path fill="#A93F37" opacity="1.000000" stroke="none" 
	d="
M108.443130,193.759186 
	C109.079292,191.889175 109.836914,189.767776 111.274040,188.321625 
	C132.943039,166.516663 154.688705,144.787781 176.471649,123.096542 
	C177.715881,121.857567 179.436188,121.096680 181.260193,120.060455 
	C181.296860,124.090935 181.008270,128.174240 180.172302,132.657257 
	C177.935562,134.020950 175.937164,134.673340 174.603668,135.996063 
	C157.253510,153.205734 139.971268,170.484299 122.770737,187.843445 
	C121.464508,189.161728 120.906715,191.221603 120.001022,192.936768 
	C116.294228,193.231796 112.587440,193.526840 108.443130,193.759186 
z"/>
<path fill="#9F3C37" opacity="1.000000" stroke="none" 
	d="
M120.396812,192.962128 
	C120.906715,191.221603 121.464508,189.161728 122.770737,187.843445 
	C139.971268,170.484299 157.253510,153.205734 174.603668,135.996063 
	C175.937164,134.673340 177.935562,134.020950 180.018570,133.017853 
	C179.559494,136.808151 178.706741,140.637573 177.326813,144.854813 
	C175.422165,146.108444 173.828400,146.755966 172.700562,147.873642 
	C160.695557,159.770554 148.729050,171.707123 136.863205,183.742477 
	C135.554871,185.069504 134.939148,187.079407 134.002197,188.772583 
	C129.598999,190.177551 125.195801,191.582520 120.396812,192.962128 
z"/>
<path fill="#983B37" opacity="1.000000" stroke="none" 
	d="
M134.331177,188.686432 
	C134.939148,187.079407 135.554871,185.069504 136.863205,183.742477 
	C148.729050,171.707123 160.695557,159.770554 172.700562,147.873642 
	C173.828400,146.755966 175.422165,146.108444 177.171906,145.181366 
	C175.803940,153.670395 171.779297,160.776520 165.473740,166.987030 
	C156.363098,175.960342 146.163986,183.152725 134.331177,188.686432 
z"/>
<path fill="#EFFEC8" opacity="1.000000" stroke="none" 
	d="
M54.734463,188.236176 
	C54.698250,188.117508 54.829021,187.836685 55.095314,187.650452 
	C55.230839,187.745056 54.901447,188.074005 54.734463,188.236176 
z"/>
</svg>