<svg version="1.1" id="Layer_1" xmlns="http://www.w3.org/2000/svg" xmlns:xlink="http://www.w3.org/1999/xlink" x="0px" y="0px"
	 width="100%" viewBox="0 0 256 256" enable-background="new 0 0 256 256" xml:space="preserve">
<path fill="#000001" opacity="1.000000" stroke="none" 
	d="
M185.000000,0.999997 
	C208.989410,1.000000 232.978821,1.000000 256.984131,1.000000 
	C256.984131,86.285080 256.984131,171.570175 256.984131,256.927612 
	C171.752625,256.927612 86.505157,256.927612 1.128846,256.927612 
	C1.128846,171.790390 1.128846,86.580521 1.128846,1.000000 
	C51.353622,1.000000 101.708153,1.000000 152.698959,1.408579 
	C163.251511,1.876788 173.167770,1.955011 183.084030,1.952832 
	C183.722748,1.952692 184.361343,1.332010 185.000000,0.999997 
M175.081543,16.215004 
	C171.814377,15.087748 168.547226,13.960491 164.665802,12.346522 
	C161.112061,11.545347 157.558304,10.744172 153.324005,9.552602 
	C148.202698,8.890895 143.081375,8.229188 137.073624,7.272290 
	C131.032837,7.429762 124.992058,7.587234 118.068085,7.666919 
	C112.180809,8.647112 106.293541,9.627306 99.681885,10.648879 
	C96.434563,11.692274 93.187248,12.735669 89.165497,13.883831 
	C66.409241,21.075638 48.030224,34.623089 33.197517,53.042732 
	C24.081915,64.362717 16.730564,76.759499 12.414494,91.500977 
	C11.440502,95.002319 10.466511,98.503670 9.095748,102.767052 
	C8.641465,106.652939 8.187182,110.538826 7.239668,115.142143 
	C6.882407,119.759483 6.525145,124.376816 6.030856,129.866409 
	C6.335803,132.911835 6.640749,135.957260 6.831438,139.872726 
	C6.943271,141.914230 7.055103,143.955734 7.054121,146.752609 
	C7.672459,149.170776 8.290795,151.588959 8.866745,154.817612 
	C9.745668,158.258255 10.624592,161.698914 11.635614,165.919449 
	C13.017626,169.647324 14.399637,173.375214 15.861737,177.850082 
	C17.557926,181.263153 19.254114,184.676224 21.036596,188.782547 
	C23.338844,192.529572 25.641090,196.276581 28.243715,200.628983 
	C31.765392,204.875641 35.287071,209.122314 39.031288,213.969757 
	C42.291355,217.008148 45.551426,220.046555 49.163567,223.668411 
	C52.710308,226.280304 56.257050,228.892212 60.229645,231.996017 
	C64.155441,234.322495 68.081238,236.648972 72.438530,239.515488 
	C76.950455,241.388184 81.462379,243.260895 86.469841,245.643021 
	C90.926689,246.884567 95.383537,248.126114 100.462456,249.784012 
	C105.950775,250.595261 111.439102,251.406525 117.615440,252.689301 
	C123.407822,252.759796 129.200211,252.830307 135.875916,252.970779 
	C141.248489,252.284164 146.621048,251.597565 152.791443,250.944305 
	C160.193161,248.619583 167.594879,246.294876 175.719223,243.919174 
	C194.236832,236.462570 209.699966,224.699631 222.607086,209.680435 
	C230.935272,199.989456 237.588409,189.113907 242.323624,176.360428 
	C244.551697,168.573853 246.779785,160.787262 249.331100,152.272278 
	C249.893982,146.182159 250.456848,140.092056 251.069321,133.068649 
	C250.827545,127.673401 250.585785,122.278160 250.217331,116.008530 
	C249.467834,111.338036 248.718338,106.667534 247.944016,101.214050 
	C246.666412,97.130363 245.388794,93.046669 244.050034,88.206932 
	C242.068329,83.752686 240.086624,79.298431 237.988022,74.145653 
	C235.767456,70.395538 233.546890,66.645432 231.075592,62.232708 
	C227.708237,57.851772 224.340881,53.470837 220.717987,48.466335 
	C218.141098,46.021782 215.564224,43.577232 212.433884,40.730320 
	C209.618179,38.170330 206.802460,35.610336 203.631699,32.485989 
	C201.266144,30.890245 198.900574,29.294502 195.993759,27.223873 
	C192.335968,25.126484 188.678177,23.029097 184.587143,20.408579 
	C181.587769,19.203043 178.588394,17.997507 175.081543,16.215004 
z"/>
<path fill="#FFFFFF" opacity="1.000000" stroke="none" 
	d="
M184.531342,0.999997 
	C184.361343,1.332010 183.722748,1.952692 183.084030,1.952832 
	C173.167770,1.955011 163.251511,1.876788 153.167618,1.408579 
	C163.354233,1.000000 173.708450,1.000000 184.531342,0.999997 
z"/>
<path fill="#3343A3" opacity="1.000000" stroke="none" 
	d="
M27.943336,200.023605 
	C25.641090,196.276581 23.338844,192.529572 21.197559,188.157379 
	C23.219931,186.207214 25.322254,185.120865 26.906649,183.521439 
	C51.143387,159.054703 75.285591,134.494354 99.508751,110.014122 
	C111.687469,97.706146 123.963409,85.494041 136.243851,73.287323 
	C139.180511,70.368294 142.310715,67.643974 145.669556,64.910919 
	C149.796265,67.909706 153.605331,70.827690 157.078217,73.911407 
	C156.344650,74.376640 155.904556,74.633400 155.556000,74.981728 
	C122.402039,108.114456 89.239899,141.239044 56.158886,174.444489 
	C54.723846,175.884933 54.039005,178.072739 52.635674,179.904037 
	C49.799763,179.717255 47.034561,178.761032 44.943657,179.562943 
	C42.487877,180.504822 42.809620,183.154129 44.227814,185.618591 
	C40.279354,189.918976 36.581703,193.968933 32.626732,197.749725 
	C31.432449,198.891434 29.524424,199.286514 27.943336,200.023605 
z"/>
<path fill="#3647AB" opacity="1.000000" stroke="none" 
	d="
M145.351913,64.830101 
	C142.310715,67.643974 139.180511,70.368294 136.243851,73.287323 
	C123.963409,85.494041 111.687469,97.706146 99.508751,110.014122 
	C75.285591,134.494354 51.143387,159.054703 26.906649,183.521439 
	C25.322254,185.120865 23.219931,186.207214 21.154413,187.810760 
	C19.254114,184.676224 17.557926,181.263153 16.141958,177.330139 
	C16.690050,176.613953 16.989220,176.449051 17.221361,176.217072 
	C55.107868,138.356842 93.001114,100.503311 130.816574,62.572239 
	C131.972076,61.413200 132.315674,59.444733 133.393234,57.914955 
	C137.616425,60.260883 141.484161,62.545490 145.351913,64.830101 
z"/>
<path fill="#394BB2" opacity="1.000000" stroke="none" 
	d="
M133.037796,57.853634 
	C132.315674,59.444733 131.972076,61.413200 130.816574,62.572239 
	C93.001114,100.503311 55.107868,138.356842 17.221361,176.217072 
	C16.989220,176.449051 16.690050,176.613953 16.101913,176.956635 
	C14.399637,173.375214 13.017626,169.647324 11.958254,165.475525 
	C13.846465,163.861847 15.593761,162.871216 16.950022,161.495178 
	C34.085686,144.109543 51.100037,126.604034 68.277031,109.259514 
	C85.354309,92.015694 102.573288,74.912109 119.755264,57.772232 
	C121.153122,56.377792 122.744766,55.177620 124.597626,53.909767 
	C127.645195,55.239445 130.341492,56.546539 133.037796,57.853634 
z"/>
<path fill="#3B4EB9" opacity="1.000000" stroke="none" 
	d="
M124.246361,53.887177 
	C122.744766,55.177620 121.153122,56.377792 119.755264,57.772232 
	C102.573288,74.912109 85.354309,92.015694 68.277031,109.259514 
	C51.100037,126.604034 34.085686,144.109543 16.950022,161.495178 
	C15.593761,162.871216 13.846465,163.861847 11.892204,165.085571 
	C10.624592,161.698914 9.745668,158.258255 9.240147,154.380005 
	C11.151415,152.719238 12.825405,151.632446 14.207166,150.252914 
	C46.030315,118.481590 77.818108,86.674850 109.630753,54.892990 
	C111.032204,53.492886 112.606735,52.266041 114.497192,50.937256 
	C118.011276,51.906410 121.128822,52.896793 124.246361,53.887177 
z"/>
<path fill="#131750" opacity="1.000000" stroke="none" 
	d="
M249.007874,153.000671 
	C246.779785,160.787262 244.551697,168.573853 241.812851,176.714355 
	C240.364807,177.715668 239.302017,178.237228 238.508606,179.028809 
	C218.068237,199.422577 197.645645,219.834229 177.269989,240.292603 
	C176.279694,241.286896 175.743988,242.733948 174.996597,243.970169 
	C167.594879,246.294876 160.193161,248.619583 152.432739,250.592529 
	C153.205811,248.837341 154.226517,247.324097 155.487778,246.048767 
	C162.388458,239.070938 169.407211,232.208710 176.234940,225.160965 
	C177.511078,223.843689 178.102798,221.863327 179.281250,219.968140 
	C195.197510,211.805496 205.353149,198.540421 214.557495,184.003387 
	C216.505447,182.931778 218.317535,182.088226 219.660751,180.767731 
	C228.031204,172.538818 236.266281,164.172241 244.630341,155.936707 
	C245.860504,154.725464 247.537582,153.968063 249.007874,153.000671 
z"/>
<path fill="#445ACE" opacity="1.000000" stroke="none" 
	d="
M100.406265,10.607500 
	C106.293541,9.627306 112.180809,8.647112 118.498558,8.070978 
	C116.110504,11.658978 113.227371,14.788496 110.488953,18.039904 
	C106.603584,22.653135 102.824791,27.356131 98.686783,32.195679 
	C95.734642,33.357285 93.157478,34.587143 90.442787,35.271301 
	C86.754250,36.200886 85.594170,38.308060 86.125366,41.875191 
	C83.942024,42.990650 81.852982,43.756832 80.413902,45.180161 
	C66.213554,59.225044 52.121059,73.378975 37.997993,87.501999 
	C29.406467,96.093498 20.860775,104.732025 12.161211,113.212708 
	C11.155575,114.193054 10.154717,117.659546 7.732900,114.424713 
	C8.187182,110.538826 8.641465,106.652939 9.453320,102.751999 
	C11.478840,102.053024 13.569985,101.795479 14.752145,100.622124 
	C37.548836,77.995148 60.272564,55.294231 82.928223,32.525864 
	C88.779869,26.645102 94.410263,20.538527 99.969872,14.380017 
	C100.660667,13.614805 100.286804,11.888476 100.406265,10.607500 
z"/>
<path fill="#475ED7" opacity="1.000000" stroke="none" 
	d="
M12.923000,90.981537 
	C16.730564,76.759499 24.081915,64.362717 33.197517,53.042732 
	C48.030224,34.623089 66.409241,21.075638 89.544167,14.192516 
	C89.087044,15.695571 88.406685,17.044989 87.392654,18.061571 
	C63.957012,41.556217 40.495872,65.025505 16.986137,88.445961 
	C15.883781,89.544144 14.288641,90.147652 12.923000,90.981537 
z"/>
<path fill="#4257CA" opacity="1.000000" stroke="none" 
	d="
M7.486284,114.783432 
	C10.154717,117.659546 11.155575,114.193054 12.161211,113.212708 
	C20.860775,104.732025 29.406467,96.093498 37.997993,87.501999 
	C52.121059,73.378975 66.213554,59.225044 80.413902,45.180161 
	C81.852982,43.756832 83.942024,42.990650 86.329147,42.107307 
	C88.285957,42.887772 89.643051,43.480434 90.962265,44.420639 
	C89.751640,46.543320 88.838936,48.577400 87.367485,50.055084 
	C62.018665,75.511269 36.617989,100.915970 11.148775,126.251625 
	C9.857180,127.536453 7.844708,128.096588 6.167881,128.994156 
	C6.525145,124.376816 6.882407,119.759483 7.486284,114.783432 
z"/>
<path fill="#3D51BE" opacity="1.000000" stroke="none" 
	d="
M114.100647,50.958488 
	C112.606735,52.266041 111.032204,53.492886 109.630753,54.892990 
	C77.818108,86.674850 46.030315,118.481590 14.207166,150.252914 
	C12.825405,151.632446 11.151415,152.719238 9.261340,153.974762 
	C8.290795,151.588959 7.672459,149.170776 7.464202,146.370453 
	C9.364563,145.043808 11.091010,144.336197 12.310570,143.120193 
	C42.579384,112.939636 72.803032,82.713722 102.989143,52.450424 
	C104.219391,51.217037 105.006386,49.541523 106.374542,48.065819 
	C109.199684,49.025925 111.650162,49.992207 114.100647,50.958488 
z"/>
<path fill="#4054C5" opacity="1.000000" stroke="none" 
	d="
M6.099367,129.430283 
	C7.844708,128.096588 9.857180,127.536453 11.148775,126.251625 
	C36.617989,100.915970 62.018665,75.511269 87.367485,50.055084 
	C88.838936,48.577400 89.751640,46.543320 91.340225,44.416210 
	C94.558235,44.851551 97.360390,45.638863 100.042160,46.774971 
	C99.531883,47.657642 99.204834,48.254284 98.743126,48.716408 
	C69.396889,78.089851 40.047245,107.459923 10.650878,136.783157 
	C9.661890,137.769684 8.191623,138.273727 6.945695,139.002686 
	C6.640749,135.957260 6.335803,132.911835 6.099367,129.430283 
z"/>
<path fill="#455CD3" opacity="1.000000" stroke="none" 
	d="
M12.668746,91.241257 
	C14.288641,90.147652 15.883781,89.544144 16.986137,88.445961 
	C40.495872,65.025505 63.957012,41.556217 87.392654,18.061571 
	C88.406685,17.044989 89.087044,15.695571 89.931381,14.140133 
	C93.187248,12.735669 96.434563,11.692274 100.044083,10.628190 
	C100.286804,11.888476 100.660667,13.614805 99.969872,14.380017 
	C94.410263,20.538527 88.779869,26.645102 82.928223,32.525864 
	C60.272564,55.294231 37.548836,77.995148 14.752145,100.622124 
	C13.569985,101.795479 11.478840,102.053024 9.651705,102.370979 
	C10.466511,98.503670 11.440502,95.002319 12.668746,91.241257 
z"/>
<path fill="#3E52C1" opacity="1.000000" stroke="none" 
	d="
M6.888566,139.437714 
	C8.191623,138.273727 9.661890,137.769684 10.650878,136.783157 
	C40.047245,107.459923 69.396889,78.089851 98.743126,48.716408 
	C99.204834,48.254284 99.531883,47.657642 100.412277,46.882187 
	C102.601814,47.117729 104.300858,47.594860 105.999893,48.071995 
	C105.006386,49.541523 104.219391,51.217037 102.989143,52.450424 
	C72.803032,82.713722 42.579384,112.939636 12.310570,143.120193 
	C11.091010,144.336197 9.364563,145.043808 7.520609,145.992767 
	C7.055103,143.955734 6.943271,141.914230 6.888566,139.437714 
z"/>
<path fill="#101349" opacity="1.000000" stroke="none" 
	d="
M175.357910,243.944672 
	C175.743988,242.733948 176.279694,241.286896 177.269989,240.292603 
	C197.645645,219.834229 218.068237,199.422577 238.508606,179.028809 
	C239.302017,178.237228 240.364807,177.715668 241.645477,177.033447 
	C237.588409,189.113907 230.935272,199.989456 222.607086,209.680435 
	C209.699966,224.699631 194.236832,236.462570 175.357910,243.944672 
z"/>
<path fill="#171C57" opacity="1.000000" stroke="none" 
	d="
M249.169479,152.636475 
	C247.537582,153.968063 245.860504,154.725464 244.630341,155.936707 
	C236.266281,164.172241 228.031204,172.538818 219.660751,180.767731 
	C218.317535,182.088226 216.505447,182.931778 214.629242,183.669113 
	C218.205261,173.893600 222.062164,164.444778 226.289276,154.993591 
	C228.164413,154.102615 229.907532,153.461563 231.132889,152.282455 
	C236.373566,147.239670 241.414886,141.990051 246.639297,136.929840 
	C247.880432,135.727737 249.548218,134.966156 251.019745,134.001938 
	C250.456848,140.092056 249.893982,146.182159 249.169479,152.636475 
z"/>
<path fill="#4156C6" opacity="1.000000" stroke="none" 
	d="
M99.000465,32.020767 
	C102.824791,27.356131 106.603584,22.653135 110.488953,18.039904 
	C113.227371,14.788496 116.110504,11.658978 118.940155,8.109871 
	C124.992058,7.587234 131.032837,7.429762 137.516968,7.741973 
	C133.302505,13.312239 128.564392,18.343082 124.036873,23.556822 
	C122.716179,25.077692 121.996101,27.120125 120.571571,28.996643 
	C113.095108,30.053457 106.047783,31.037113 99.000465,32.020767 
z"/>
<path fill="#1A205F" opacity="1.000000" stroke="none" 
	d="
M251.044525,133.535294 
	C249.548218,134.966156 247.880432,135.727737 246.639297,136.929840 
	C241.414886,141.990051 236.373566,147.239670 231.132889,152.282455 
	C229.907532,153.461563 228.164413,154.102615 226.274597,154.562698 
	C226.591888,148.089447 227.294067,142.044708 228.361755,135.996033 
	C232.459671,132.712006 236.199326,129.440155 239.922379,126.149513 
	C243.405411,123.071007 246.870850,119.972580 250.344009,116.882919 
	C250.585785,122.278160 250.827545,127.673401 251.044525,133.535294 
z"/>
<path fill="#161B56" opacity="1.000000" stroke="none" 
	d="
M179.010376,220.188950 
	C178.102798,221.863327 177.511078,223.843689 176.234940,225.160965 
	C169.407211,232.208710 162.388458,239.070938 155.487778,246.048767 
	C154.226517,247.324097 153.205811,248.837341 152.033829,250.575851 
	C146.621048,251.597565 141.248489,252.284164 135.475266,252.601562 
	C138.802643,248.235260 142.661087,244.349487 146.205734,240.195908 
	C148.082581,237.996628 149.413849,235.331726 151.257507,232.645340 
	C160.685852,228.338745 169.848099,224.263855 179.010376,220.188950 
z"/>
<path fill="#1B2367" opacity="1.000000" stroke="none" 
	d="
M250.280670,116.445724 
	C246.870850,119.972580 243.405411,123.071007 239.922379,126.149513 
	C236.199326,129.440155 232.459671,132.712006 228.296066,135.532166 
	C227.882309,129.713440 227.899750,124.354622 228.267242,118.966797 
	C232.336655,115.533401 236.009613,112.076401 239.791153,108.742546 
	C242.440308,106.407005 245.237686,104.239563 247.968857,101.997040 
	C248.718338,106.667534 249.467834,111.338036 250.280670,116.445724 
z"/>
<path fill="#3D51BE" opacity="1.000000" stroke="none" 
	d="
M121.000717,28.923487 
	C121.996101,27.120125 122.716179,25.077692 124.036873,23.556822 
	C128.564392,18.343082 133.302505,13.312239 137.960205,7.889568 
	C143.081375,8.229188 148.202698,8.890895 153.631317,10.097233 
	C150.973663,13.913324 147.876511,17.076696 145.085571,20.490429 
	C142.850952,23.223677 140.988388,26.261099 138.495697,29.178621 
	C132.354034,29.103643 126.677383,29.013567 121.000717,28.923487 
z"/>
<path fill="#191F5E" opacity="1.000000" stroke="none" 
	d="
M150.991425,232.877029 
	C149.413849,235.331726 148.082581,237.996628 146.205734,240.195908 
	C142.661087,244.349487 138.802643,248.235260 135.033600,252.566574 
	C129.200211,252.830307 123.407822,252.759796 117.320633,252.086792 
	C120.198341,247.975037 123.465317,244.544952 126.501297,240.921326 
	C127.902611,239.248779 128.852570,237.198074 130.462234,235.239700 
	C137.608658,234.399384 144.300049,233.638214 150.991425,232.877029 
z"/>
<path fill="#252F7E" opacity="1.000000" stroke="none" 
	d="
M231.326324,62.895329 
	C233.546890,66.645432 235.767456,70.395538 237.889755,74.808151 
	C232.469467,81.095306 227.147446,86.719971 221.568481,92.093063 
	C218.833618,86.904114 216.355698,81.966728 214.246338,77.016121 
	C215.748825,76.175247 216.945648,75.420593 218.005722,74.507225 
	C222.468170,70.662407 226.889771,66.770203 231.326324,62.895329 
z"/>
<path fill="#303E99" opacity="1.000000" stroke="none" 
	d="
M28.093525,200.326294 
	C29.524424,199.286514 31.432449,198.891434 32.626732,197.749725 
	C36.581703,193.968933 40.279354,189.918976 44.460884,185.894440 
	C47.672516,189.990601 50.498989,194.164597 53.178528,198.688202 
	C48.290642,203.814850 43.549694,208.591919 38.808746,213.368973 
	C35.287071,209.122314 31.765392,204.875641 28.093525,200.326294 
z"/>
<path fill="#293587" opacity="1.000000" stroke="none" 
	d="
M231.200958,62.564018 
	C226.889771,66.770203 222.468170,70.662407 218.005722,74.507225 
	C216.945648,75.420593 215.748825,76.175247 213.976044,76.823792 
	C210.817337,72.784782 208.297501,68.924873 206.136154,65.022873 
	C211.320938,59.683819 216.147232,54.386868 220.973511,49.089905 
	C224.340881,53.470837 227.708237,57.851772 231.200958,62.564018 
z"/>
<path fill="#20286E" opacity="1.000000" stroke="none" 
	d="
M247.956436,101.605545 
	C245.237686,104.239563 242.440308,106.407005 239.791153,108.742546 
	C236.009613,112.076401 232.336655,115.533401 228.175919,118.559479 
	C227.060013,113.477608 226.385513,108.774055 226.073822,104.029816 
	C229.703415,101.080399 232.926620,98.120720 236.251022,95.279442 
	C238.804993,93.096634 241.486435,91.062958 244.111176,88.962967 
	C245.388794,93.046669 246.666412,97.130363 247.956436,101.605545 
z"/>
<path fill="#222B75" opacity="1.000000" stroke="none" 
	d="
M244.080597,88.584946 
	C241.486435,91.062958 238.804993,93.096634 236.251022,95.279442 
	C232.926620,98.120720 229.703415,101.080399 225.853363,103.755463 
	C224.121857,99.796082 222.973648,96.070358 221.825424,92.344635 
	C227.147446,86.719971 232.469467,81.095306 237.948212,75.157410 
	C240.086624,79.298431 242.068329,83.752686 244.080597,88.584946 
z"/>
<path fill="#2C398F" opacity="1.000000" stroke="none" 
	d="
M38.920017,213.669373 
	C43.549694,208.591919 48.290642,203.814850 53.422066,198.953247 
	C56.897636,202.504425 59.982731,206.140167 63.024944,210.134430 
	C59.118759,215.658356 55.334572,220.912781 48.811497,223.084946 
	C45.551426,220.046555 42.291355,217.008148 38.920017,213.669373 
z"/>
<path fill="#1C2366" opacity="1.000000" stroke="none" 
	d="
M130.007202,235.318832 
	C128.852570,237.198074 127.902611,239.248779 126.501297,240.921326 
	C123.465317,244.544952 120.198341,247.975037 116.976624,251.851013 
	C111.439102,251.406525 105.950775,250.595261 100.298645,249.233093 
	C104.445076,243.693878 108.755325,238.705582 113.504585,233.730362 
	C119.298134,234.268570 124.652672,234.793701 130.007202,235.318832 
z"/>
<path fill="#232C77" opacity="1.000000" stroke="none" 
	d="
M85.974319,245.133606 
	C81.462379,243.260895 76.950455,241.388184 72.255402,238.902908 
	C76.392288,233.856705 80.712288,229.423096 85.383667,225.060181 
	C90.287712,227.017151 94.840378,228.903412 99.065063,230.940155 
	C94.482834,235.771622 90.228577,240.452606 85.974319,245.133606 
z"/>
<path fill="#20286F" opacity="1.000000" stroke="none" 
	d="
M86.222084,245.388306 
	C90.228577,240.452606 94.482834,235.771622 99.451385,230.942383 
	C104.465637,231.768509 108.765602,232.742905 113.065567,233.717300 
	C108.755325,238.705582 104.445076,243.693878 99.987610,249.024902 
	C95.383537,248.126114 90.926689,246.884567 86.222084,245.388306 
z"/>
<path fill="#263180" opacity="1.000000" stroke="none" 
	d="
M85.032288,224.989502 
	C80.712288,229.423096 76.392288,233.856705 72.039658,238.632889 
	C68.081238,236.648972 64.155441,234.322495 60.156597,231.394287 
	C61.532505,229.218185 63.041721,227.694504 64.417458,226.058578 
	C67.018944,222.965057 69.543739,219.807068 72.427536,216.803375 
	C76.847214,219.617081 80.939751,222.303299 85.032288,224.989502 
z"/>
<path fill="#2C3990" opacity="1.000000" stroke="none" 
	d="
M220.845764,48.778122 
	C216.147232,54.386868 211.320938,59.683819 205.860474,64.853836 
	C203.138168,62.190212 201.050049,59.653519 199.101440,56.806721 
	C200.602661,55.055714 202.003754,53.649731 203.318268,52.167000 
	C206.562439,48.507645 209.766922,44.813084 212.987350,41.132675 
	C215.564224,43.577232 218.141098,46.021782 220.845764,48.778122 
z"/>
<path fill="#3B4EB7" opacity="1.000000" stroke="none" 
	d="
M138.960693,29.163521 
	C140.988388,26.261099 142.850952,23.223677 145.085571,20.490429 
	C147.876511,17.076696 150.973663,13.913324 153.971588,10.292431 
	C157.558304,10.744172 161.112061,11.545347 164.666687,12.780890 
	C161.019394,17.402491 157.295547,21.527391 153.765564,25.812023 
	C152.589172,27.239920 151.909378,29.076952 150.597351,30.747545 
	C146.448318,30.233269 142.704498,29.698393 138.960693,29.163521 
z"/>
<path fill="#3444A4" opacity="1.000000" stroke="none" 
	d="
M185.020386,20.931707 
	C188.678177,23.029097 192.335968,25.126484 195.927826,27.647854 
	C191.236053,33.066238 186.610199,38.060642 181.653778,42.954185 
	C178.215363,40.902493 175.107559,38.951656 172.144257,36.701252 
	C173.776947,34.849979 175.387665,33.396587 176.727921,31.726194 
	C179.566833,28.188015 182.264694,24.536655 185.020386,20.931707 
z"/>
<path fill="#2F3D97" opacity="1.000000" stroke="none" 
	d="
M212.710617,40.931496 
	C209.766922,44.813084 206.562439,48.507645 203.318268,52.167000 
	C202.003754,53.649731 200.602661,55.055714 198.799667,56.657902 
	C195.914429,54.505581 193.470474,52.191978 191.059357,49.541603 
	C194.538055,45.493206 198.085266,41.868324 201.376038,38.023930 
	C202.563049,36.637241 203.134430,34.723553 203.986755,33.050350 
	C206.802460,35.610336 209.618179,38.170330 212.710617,40.931496 
z"/>
<path fill="#3748AB" opacity="1.000000" stroke="none" 
	d="
M184.803772,20.670143 
	C182.264694,24.536655 179.566833,28.188015 176.727921,31.726194 
	C175.387665,33.396587 173.776947,34.849979 171.797638,36.628670 
	C168.204926,35.515739 165.103348,34.175831 162.006470,32.480835 
	C166.537109,27.014488 171.063065,21.903229 175.589020,16.791969 
	C178.588394,17.997507 181.587769,19.203043 184.803772,20.670143 
z"/>
<path fill="#31409E" opacity="1.000000" stroke="none" 
	d="
M203.809235,32.768173 
	C203.134430,34.723553 202.563049,36.637241 201.376038,38.023930 
	C198.085266,41.868324 194.538055,45.493206 190.748566,49.429295 
	C187.598083,47.454182 184.791229,45.254612 181.984360,43.055042 
	C186.610199,38.060642 191.236053,33.066238 196.198456,27.885298 
	C198.900574,29.294502 201.266144,30.890245 203.809235,32.768173 
z"/>
<path fill="#293588" opacity="1.000000" stroke="none" 
	d="
M72.100395,216.675858 
	C69.543739,219.807068 67.018944,222.965057 64.417458,226.058578 
	C63.041721,227.694504 61.532505,229.218185 59.943672,231.148331 
	C56.257050,228.892212 52.710308,226.280304 48.987534,223.376678 
	C55.334572,220.912781 59.118759,215.658356 63.338982,210.273560 
	C66.497398,212.261398 69.298897,214.468628 72.100395,216.675858 
z"/>
<path fill="#394BB2" opacity="1.000000" stroke="none" 
	d="
M175.335281,16.503487 
	C171.063065,21.903229 166.537109,27.014488 161.624268,32.434830 
	C157.825790,32.071590 154.414185,31.399271 151.002579,30.726948 
	C151.909378,29.076952 152.589172,27.239920 153.765564,25.812023 
	C157.295547,21.527391 161.019394,17.402491 164.973816,13.024245 
	C168.547226,13.960491 171.814377,15.087748 175.335281,16.503487 
z"/>
<path fill="#BFB081" opacity="1.000000" stroke="none" 
	d="
M150.597351,30.747547 
	C154.414185,31.399271 157.825790,32.071590 161.619598,32.789917 
	C165.103348,34.175831 168.204926,35.515739 171.653107,36.928234 
	C175.107559,38.951656 178.215363,40.902493 181.653778,42.954185 
	C184.791229,45.254612 187.598083,47.454182 190.715729,49.766060 
	C193.470474,52.191978 195.914429,54.505581 198.660156,56.968006 
	C201.050049,59.653519 203.138168,62.190212 205.501984,64.895935 
	C208.297501,68.924873 210.817337,72.784782 213.607483,76.837021 
	C216.355698,81.966728 218.833618,86.904114 221.568481,92.093063 
	C222.973648,96.070358 224.121857,99.796082 225.490540,103.796158 
	C226.385513,108.774055 227.060013,113.477608 227.825836,118.588478 
	C227.899750,124.354622 227.882309,129.713440 227.930573,135.536133 
	C227.294067,142.044708 226.591888,148.089447 225.904373,154.565063 
	C222.062164,164.444778 218.205261,173.893600 214.276642,183.676682 
	C205.353149,198.540421 195.197510,211.805496 179.281250,219.968140 
	C169.848099,224.263855 160.685852,228.338745 151.257507,232.645340 
	C144.300049,233.638214 137.608658,234.399384 130.462250,235.239700 
	C124.652672,234.793701 119.298134,234.268570 113.504585,233.730362 
	C108.765602,232.742905 104.465637,231.768509 99.779358,230.791885 
	C94.840378,228.903412 90.287712,227.017151 85.383667,225.060196 
	C80.939751,222.303299 76.847214,219.617081 72.427536,216.803375 
	C69.298897,214.468628 66.497398,212.261398 63.381859,209.915024 
	C59.982731,206.140167 56.897636,202.504425 53.569000,198.603638 
	C50.498989,194.164597 47.672516,189.990601 44.612968,185.540741 
	C42.809620,183.154129 42.487877,180.504822 44.943657,179.562943 
	C47.034561,178.761032 49.799763,179.717255 52.938622,180.116776 
	C58.387413,181.959259 63.164230,183.580643 68.206223,185.438004 
	C71.982971,186.706635 75.494553,187.739258 79.374588,188.908951 
	C82.827858,189.711639 85.912666,190.377258 89.341995,191.228302 
	C93.788528,191.981445 97.890556,192.549149 102.390244,193.234100 
	C108.525558,193.213028 114.263214,193.074707 120.405563,192.975418 
	C121.953491,192.833893 123.134163,192.779739 124.234375,192.453949 
	C142.118881,187.158112 156.664581,176.747177 168.984695,163.009354 
	C170.844650,160.935364 172.988342,158.723221 173.815323,156.188263 
	C176.412628,148.226608 178.444199,140.080383 180.808807,131.548615 
	C180.916595,125.395561 180.910431,119.699509 180.935944,113.612335 
	C179.699051,109.453835 178.430511,105.686440 177.102127,101.565262 
	C175.487473,98.597458 173.932648,95.983444 172.374710,93.024246 
	C170.900284,90.122360 169.428986,87.565674 167.870514,84.682381 
	C164.327042,80.819077 160.870728,77.282372 157.414413,73.745667 
	C153.605331,70.827690 149.796265,67.909706 145.669556,64.910919 
	C141.484161,62.545490 137.616425,60.260883 133.393234,57.914955 
	C130.341492,56.546539 127.645195,55.239445 124.597626,53.909763 
	C121.128822,52.896793 118.011276,51.906410 114.497192,50.937260 
	C111.650162,49.992207 109.199684,49.025925 106.374542,48.065819 
	C104.300858,47.594860 102.601814,47.117729 100.532661,46.533382 
	C97.360390,45.638863 94.558235,44.851551 91.378113,44.068672 
	C89.643051,43.480434 88.285957,42.887772 86.725067,42.062992 
	C85.594170,38.308060 86.754250,36.200886 90.442787,35.271301 
	C93.157478,34.587143 95.734642,33.357285 98.686783,32.195679 
	C106.047783,31.037113 113.095108,30.053457 120.571579,28.996645 
	C126.677383,29.013567 132.354034,29.103643 138.495697,29.178619 
	C142.704498,29.698393 146.448318,30.233269 150.597351,30.747547 
M54.920849,187.550400 
	C54.781059,187.526489 54.641270,187.502563 54.501484,187.478653 
	C54.604481,187.710770 54.707478,187.942902 54.897449,188.875763 
	C57.956623,193.415421 60.260746,198.797302 64.213150,202.340576 
	C77.324028,214.094284 91.745827,223.717270 109.699051,226.791061 
	C124.758148,229.369308 139.650787,230.976288 154.295502,224.787613 
	C172.463486,217.110016 189.762756,208.816299 201.958649,191.858444 
	C219.655045,167.252350 225.279175,140.075439 220.579666,111.007416 
	C216.783371,87.526108 203.809738,68.317192 185.352585,53.536205 
	C177.445923,47.204342 168.218689,41.075294 158.630981,38.647984 
	C146.117416,35.479942 132.661819,35.556149 119.589020,35.271591 
	C112.885582,35.125679 106.133148,37.230453 98.112213,38.526642 
	C110.397331,42.755562 121.448509,45.557507 131.606583,50.280354 
	C148.859360,58.301792 165.089432,67.954903 175.459076,85.057755 
	C185.190308,101.107635 190.593491,117.632614 186.111893,136.711655 
	C182.621658,151.570160 177.849823,165.062500 165.462997,175.359528 
	C153.267899,185.497177 140.604919,194.428329 125.133827,198.339233 
	C111.261864,201.845871 97.374359,199.811432 83.768776,196.305618 
	C74.134506,193.823120 64.665703,190.698502 54.920849,187.550400 
z"/>
<path fill="#2F3E9A" opacity="1.000000" stroke="none" 
	d="
M67.941048,185.202011 
	C63.164230,183.580643 58.387413,181.959259 53.307648,180.125137 
	C54.039005,178.072739 54.723846,175.884933 56.158886,174.444489 
	C89.239899,141.239044 122.402039,108.114456 155.556000,74.981728 
	C155.904556,74.633400 156.344650,74.376640 157.078217,73.911407 
	C160.870728,77.282372 164.327042,80.819077 167.508545,84.684326 
	C165.496033,86.168404 163.498825,87.066422 162.058838,88.517410 
	C131.597412,119.211563 101.189362,149.958740 70.821861,180.745834 
	C69.605690,181.978806 68.889954,183.705414 67.941048,185.202011 
z"/>
<path fill="#EFFEC8" opacity="1.000000" stroke="none" 
	d="
M55.123047,187.860504 
	C64.665703,190.698502 74.134506,193.823120 83.768776,196.305618 
	C97.374359,199.811432 111.261864,201.845871 125.133827,198.339233 
	C140.604919,194.428329 153.267899,185.497177 165.462997,175.359528 
	C177.849823,165.062500 182.621658,151.570160 186.111893,136.711655 
	C190.593491,117.632614 185.190308,101.107635 175.459076,85.057755 
	C165.089432,67.954903 148.859360,58.301792 131.606583,50.280354 
	C121.448509,45.557507 110.397331,42.755562 98.112213,38.526642 
	C106.133148,37.230453 112.885582,35.125679 119.589020,35.271591 
	C132.661819,35.556149 146.117416,35.479942 158.630981,38.647984 
	C168.218689,41.075294 177.445923,47.204342 185.352585,53.536205 
	C203.809738,68.317192 216.783371,87.526108 220.579666,111.007416 
	C225.279175,140.075439 219.655045,167.252350 201.958649,191.858444 
	C189.762756,208.816299 172.463486,217.110016 154.295502,224.787613 
	C139.650787,230.976288 124.758148,229.369308 109.699051,226.791061 
	C91.745827,223.717270 77.324028,214.094284 64.213150,202.340576 
	C60.260746,198.797302 57.956623,193.415421 54.933914,188.448547 
	C54.970375,188.021347 55.123047,187.860504 55.123047,187.860504 
z"/>
<path fill="#2C3992" opacity="1.000000" stroke="none" 
	d="
M68.206223,185.438004 
	C68.889954,183.705414 69.605690,181.978806 70.821861,180.745834 
	C101.189362,149.958740 131.597412,119.211563 162.058838,88.517410 
	C163.498825,87.066422 165.496033,86.168404 167.595703,85.010925 
	C169.428986,87.565674 170.900284,90.122360 172.172562,93.359718 
	C170.722595,95.120262 169.391357,96.120659 168.232483,97.291634 
	C139.152710,126.674957 110.085571,156.070801 81.052643,185.500366 
	C80.170975,186.394073 79.679512,187.672714 79.006126,188.771881 
	C75.494553,187.739258 71.982971,186.706635 68.206223,185.438004 
z"/>
<path fill="#283487" opacity="1.000000" stroke="none" 
	d="
M101.992577,193.116852 
	C97.890556,192.549149 93.788528,191.981445 89.374924,190.879944 
	C90.172035,188.934296 91.149544,187.391495 92.408775,186.129913 
	C119.382866,159.104919 146.384903,132.107834 173.400330,105.124168 
	C174.562195,103.963684 175.903992,102.983322 177.161957,101.919052 
	C178.430511,105.686440 179.699051,109.453835 180.598831,113.649628 
	C179.417206,114.622559 178.487717,115.050240 177.808334,115.728477 
	C153.238205,140.257645 128.682022,164.800827 104.175354,189.393341 
	C103.192245,190.379898 102.708817,191.864380 101.992577,193.116852 
z"/>
<path fill="#25307F" opacity="1.000000" stroke="none" 
	d="
M102.390244,193.234100 
	C102.708817,191.864380 103.192245,190.379898 104.175354,189.393341 
	C128.682022,164.800827 153.238205,140.257645 177.808334,115.728477 
	C178.487717,115.050240 179.417206,114.622559 180.567169,114.040749 
	C180.910431,119.699509 180.916595,125.395561 180.480286,131.597672 
	C178.401276,133.193192 176.531586,134.048050 175.163574,135.407684 
	C157.607788,152.856049 140.098083,170.351196 122.674156,187.931046 
	C121.398392,189.218246 120.874390,191.250534 120.000870,192.936401 
	C114.263214,193.074707 108.525558,193.213028 102.390244,193.234100 
z"/>
<path fill="#2A378C" opacity="1.000000" stroke="none" 
	d="
M177.102127,101.565262 
	C175.903992,102.983322 174.562195,103.963684 173.400330,105.124168 
	C146.384903,132.107834 119.382866,159.104919 92.408775,186.129913 
	C91.149544,187.391495 90.172035,188.934296 89.030411,190.694504 
	C85.912666,190.377258 82.827858,189.711639 79.374588,188.908966 
	C79.679512,187.672714 80.170975,186.394073 81.052643,185.500366 
	C110.085571,156.070801 139.152710,126.674957 168.232483,97.291634 
	C169.391357,96.120659 170.722595,95.120262 172.175674,93.704910 
	C173.932648,95.983444 175.487473,98.597458 177.102127,101.565262 
z"/>
<path fill="#242D77" opacity="1.000000" stroke="none" 
	d="
M120.405563,192.975418 
	C120.874390,191.250534 121.398392,189.218246 122.674156,187.931046 
	C140.098083,170.351196 157.607788,152.856049 175.163574,135.407684 
	C176.531586,134.048050 178.401276,133.193192 180.366333,132.054688 
	C178.444199,140.080383 176.412628,148.226608 173.815323,156.188263 
	C172.988342,158.723221 170.844650,160.935364 168.984695,163.009354 
	C156.664581,176.747177 142.118881,187.158112 124.234375,192.453949 
	C123.134163,192.779739 121.953491,192.833893 120.405563,192.975418 
z"/>
<path fill="#EFFEC8" opacity="1.000000" stroke="none" 
	d="
M54.890427,188.098175 
	C54.707478,187.942902 54.604481,187.710770 54.501480,187.478638 
	C54.641270,187.502563 54.781059,187.526489 55.021950,187.705444 
	C55.123047,187.860504 54.970375,188.021347 54.890427,188.098175 
z"/>
</svg>