<svg version="1.1" id="Layer_1" xmlns="http://www.w3.org/2000/svg" xmlns:xlink="http://www.w3.org/1999/xlink" x="0px" y="0px"
	 width="100%" viewBox="0 0 256 256" enable-background="new 0 0 256 256" xml:space="preserve">
<path fill="#000001" opacity="1.000000" stroke="none" 
	d="
M181.000000,1.000001 
	C206.322159,1.000000 231.644302,1.000000 256.983215,1.000000 
	C256.983215,86.284500 256.983215,171.569016 256.983215,256.926758 
	C171.753204,256.926758 86.506332,256.926758 1.129728,256.926758 
	C1.129728,171.790985 1.129728,86.581703 1.129728,1.000000 
	C50.020267,1.000000 99.041473,1.000000 148.698944,1.408579 
	C159.251495,1.876792 169.167786,1.955020 179.084045,1.952855 
	C179.722763,1.952716 180.361359,1.332023 181.000000,1.000001 
M167.549316,13.274239 
	C162.738266,12.083359 157.927200,10.892480 152.455139,9.293988 
	C145.964203,8.610203 139.473251,7.926417 132.063583,7.086007 
	C124.998970,7.559020 117.934349,8.032032 110.025055,8.563545 
	C104.014496,10.035441 98.003929,11.507337 91.225586,12.982878 
	C78.369926,16.820505 66.656807,22.955606 56.001568,31.023439 
	C35.320328,46.682667 20.307163,66.470192 12.214771,92.118263 
	C10.784160,98.737518 9.353548,105.356773 7.489371,112.662918 
	C7.152358,119.430794 6.815345,126.198662 6.272039,133.806366 
	C6.957699,139.864471 7.643360,145.922592 8.277351,152.746902 
	C9.478329,157.180374 10.679306,161.613846 11.897355,166.820297 
	C13.457058,170.935806 15.016760,175.051300 16.773392,179.883743 
	C19.045584,184.181870 21.317774,188.479996 23.760365,193.379974 
	C26.077539,196.772949 28.394716,200.165924 30.934847,204.142593 
	C33.188759,206.802292 35.442669,209.461990 37.936634,212.765076 
	C44.278019,218.422318 50.619400,224.079559 57.488804,230.199371 
	C62.327446,233.124222 67.166092,236.049072 72.439056,239.513702 
	C76.254616,241.122818 80.070175,242.731934 84.422699,244.795197 
	C88.231789,245.973694 92.040886,247.152191 96.448616,248.764984 
	C100.612831,249.567184 104.777039,250.369385 109.556465,251.658936 
	C113.368904,252.064102 117.181335,252.469284 121.919807,252.973877 
	C126.277069,252.949478 130.634338,252.925079 135.874313,252.969528 
	C140.914871,252.299210 145.955414,251.628876 151.816864,250.995239 
	C156.553772,249.687973 161.290665,248.380707 166.796875,247.028397 
	C171.543564,245.055984 176.290253,243.083588 181.754578,241.002945 
	C208.350037,228.430954 227.558411,208.573288 240.284805,181.357147 
	C242.500122,175.235886 244.715439,169.114624 247.096024,162.209473 
	C248.048523,157.472092 249.001007,152.734711 250.044205,147.163223 
	C250.369324,142.775970 250.694443,138.388702 251.071930,133.067657 
	C250.772629,127.631752 250.473328,122.195839 250.178894,115.889122 
	C249.483505,111.582474 248.788116,107.275833 248.065094,102.163521 
	C246.451447,97.010132 244.837799,91.856735 243.115494,85.987816 
	C241.470200,82.304909 239.824890,78.622002 238.018799,74.237099 
	C236.029373,70.818481 234.039948,67.399864 231.816055,63.334042 
	C229.542877,60.224586 227.269699,57.115128 224.751312,53.381248 
	C221.496597,49.957027 218.241867,46.532806 214.402328,42.753147 
	C210.929993,39.519287 207.457672,36.285427 203.628265,32.486713 
	C200.624298,30.577288 197.620331,28.667862 194.258896,26.141235 
	C189.858017,23.750679 185.457153,21.360123 180.547592,18.449261 
	C176.400192,16.878971 172.252792,15.308681 167.549316,13.274239 
z"/>
<path fill="#FFFFFF" opacity="1.000000" stroke="none" 
	d="
M180.531342,1.000001 
	C180.361359,1.332023 179.722763,1.952716 179.084045,1.952855 
	C169.167786,1.955020 159.251495,1.876792 149.167603,1.408579 
	C159.354233,1.000000 169.708450,1.000000 180.531342,1.000001 
z"/>
<path fill="#4258CA" opacity="1.000000" stroke="none" 
	d="
M110.869736,8.505045 
	C117.934349,8.032032 124.998970,7.559020 132.520233,7.512659 
	C129.035400,12.408884 124.972054,16.779308 121.214363,21.398390 
	C119.775719,23.166838 119.035637,25.503582 117.659653,27.696419 
	C103.157623,31.413511 91.390862,38.958599 83.027649,50.868961 
	C78.233276,57.696789 74.953606,65.588211 70.627274,73.004654 
	C68.522835,74.157898 66.531929,75.054428 65.081627,76.495148 
	C47.264393,94.194717 29.549599,111.997437 11.723384,129.687897 
	C10.296099,131.104294 8.241442,131.888535 6.478332,132.966537 
	C6.815345,126.198662 7.152358,119.430794 8.064402,112.295288 
	C10.664166,110.547165 12.977302,109.452103 14.669364,107.742386 
	C33.143745,89.075371 51.479507,70.271240 69.939163,51.589565 
	C82.451874,38.926369 95.135315,26.431860 107.642937,13.763694 
	C109.050247,12.338319 109.809799,10.273396 110.869736,8.505045 
z"/>
<path fill="#455BD2" opacity="1.000000" stroke="none" 
	d="
M110.447395,8.534295 
	C109.809799,10.273396 109.050247,12.338319 107.642937,13.763694 
	C95.135315,26.431860 82.451874,38.926369 69.939163,51.589565 
	C51.479507,70.271240 33.143745,89.075371 14.669364,107.742386 
	C12.977302,109.452103 10.664166,110.547165 8.281185,111.951843 
	C9.353548,105.356773 10.784160,98.737518 12.634853,92.118202 
	C14.382632,91.565971 16.045670,91.350876 16.989025,90.412384 
	C41.181030,66.344810 65.317200,42.220913 89.373840,18.018112 
	C90.647575,16.736628 91.138184,14.676744 91.993362,12.979233 
	C98.003929,11.507337 104.014496,10.035441 110.447395,8.534295 
z"/>
<path fill="#3E52C0" opacity="1.000000" stroke="none" 
	d="
M6.375186,133.386444 
	C8.241442,131.888535 10.296099,131.104294 11.723384,129.687897 
	C29.549599,111.997437 47.264393,94.194717 65.081627,76.495148 
	C66.531929,75.054428 68.522835,74.157898 70.494370,73.381477 
	C69.587212,82.338562 68.448219,90.922668 67.295387,99.611099 
	C56.503067,101.082985 56.503067,101.082985 55.651924,108.034088 
	C53.896805,109.186897 52.362793,110.181732 51.094479,111.443619 
	C38.592762,123.881981 26.169834,136.399811 13.617224,148.786331 
	C12.191767,150.192917 10.107693,150.932068 8.329020,151.980698 
	C7.643360,145.922592 6.957699,139.864471 6.375186,133.386444 
z"/>
<path fill="#475ED7" opacity="1.000000" stroke="none" 
	d="
M91.609474,12.981054 
	C91.138184,14.676744 90.647575,16.736628 89.373840,18.018112 
	C65.317200,42.220913 41.181030,66.344810 16.989025,90.412384 
	C16.045670,91.350876 14.382632,91.565971 12.870108,91.816605 
	C20.307163,66.470192 35.320328,46.682667 56.001568,31.023439 
	C66.656807,22.955606 78.369926,16.820505 91.609474,12.981054 
z"/>
<path fill="#1E276E" opacity="1.000000" stroke="none" 
	d="
M243.224152,86.703354 
	C244.837799,91.856735 246.451447,97.010132 247.768021,102.708374 
	C234.515442,116.133934 221.593658,129.049026 208.556335,141.846375 
	C207.129700,143.246704 205.038406,143.969894 203.173309,144.544647 
	C203.146118,137.723953 203.201019,131.365768 203.605377,125.001068 
	C204.716919,124.725296 205.696228,124.671776 206.209274,124.155182 
	C218.577789,111.701248 230.896469,99.197830 243.224152,86.703354 
z"/>
<path fill="#1B2266" opacity="1.000000" stroke="none" 
	d="
M203.255386,145.007156 
	C205.038406,143.969894 207.129700,143.246704 208.556335,141.846375 
	C221.593658,129.049026 234.515442,116.133934 247.781830,103.111206 
	C248.788116,107.275833 249.483505,111.582474 250.009491,116.646461 
	C235.627609,131.700409 221.436447,146.018433 207.154404,160.245178 
	C206.208420,161.187500 204.570633,161.435318 203.172745,161.544464 
	C203.145691,155.724228 203.200546,150.365692 203.255386,145.007156 
z"/>
<path fill="#3B4EB9" opacity="1.000000" stroke="none" 
	d="
M8.303185,152.363800 
	C10.107693,150.932068 12.191767,150.192917 13.617224,148.786331 
	C26.169834,136.399811 38.592762,123.881981 51.094479,111.443619 
	C52.362793,110.181732 53.896805,109.186897 55.726105,108.496933 
	C56.094582,114.283836 56.044468,119.641953 55.650093,125.034241 
	C53.901680,126.181175 52.374947,127.170631 51.112511,128.425903 
	C39.607716,139.865356 28.174515,151.376953 16.642294,162.788528 
	C15.297178,164.119568 13.479095,164.972641 11.880281,166.047318 
	C10.679306,161.613846 9.478329,157.180374 8.303185,152.363800 
z"/>
<path fill="#384AB1" opacity="1.000000" stroke="none" 
	d="
M11.888817,166.433807 
	C13.479095,164.972641 15.297178,164.119568 16.642294,162.788528 
	C28.174515,151.376953 39.607716,139.865356 51.112511,128.425903 
	C52.374947,127.170631 53.901680,126.181175 55.726540,125.497444 
	C56.096672,131.950897 56.046101,137.975342 55.630569,144.003845 
	C54.489120,144.233749 53.471607,144.219620 52.972149,144.721268 
	C44.931564,152.797256 37.081963,161.067551 28.912004,169.008759 
	C25.105383,172.708801 20.706747,175.799759 16.576462,179.166809 
	C15.016760,175.051300 13.457058,170.935806 11.888817,166.433807 
z"/>
<path fill="#181F5F" opacity="1.000000" stroke="none" 
	d="
M203.254639,162.006165 
	C204.570633,161.435318 206.208420,161.187500 207.154404,160.245178 
	C221.436447,146.018433 235.627609,131.700409 250.007050,117.081863 
	C250.473328,122.195839 250.772629,127.631752 250.691208,133.567627 
	C248.291702,135.460373 246.014832,136.591614 244.295654,138.288025 
	C232.336288,150.089142 220.529648,162.045105 208.562866,173.838608 
	C207.137756,175.243073 205.041367,175.966385 203.174072,176.545258 
	C203.146240,171.392136 203.200439,166.699158 203.254639,162.006165 
z"/>
<path fill="#222B77" opacity="1.000000" stroke="none" 
	d="
M243.169830,86.345581 
	C230.896469,99.197830 218.577789,111.701248 206.209274,124.155182 
	C205.696228,124.671776 204.716919,124.725296 203.523376,124.538635 
	C203.145706,118.058006 203.199509,112.033302 203.588730,105.960426 
	C205.790756,104.600151 207.878128,103.513443 209.486664,101.937881 
	C217.517471,94.071770 225.385757,86.039818 233.407852,78.164658 
	C234.755341,76.841850 236.577011,76.002060 238.179596,74.939087 
	C239.824890,78.622002 241.470200,82.304909 243.169830,86.345581 
z"/>
<path fill="#2A378D" opacity="1.000000" stroke="none" 
	d="
M214.987137,43.108589 
	C218.241867,46.532806 221.496597,49.957027 224.728485,53.991859 
	C213.609619,65.761902 202.529587,76.937363 191.386749,88.049866 
	C190.509125,88.925125 189.194473,89.362190 187.984009,89.594742 
	C187.110367,84.361534 186.335648,79.536476 185.729553,74.364502 
	C194.485245,65.291901 203.101410,56.594456 211.629028,47.811054 
	C212.955582,46.444710 213.877884,44.685902 214.987137,43.108589 
z"/>
<path fill="#3546A9" opacity="1.000000" stroke="none" 
	d="
M16.674927,179.525269 
	C20.706747,175.799759 25.105383,172.708801 28.912004,169.008759 
	C37.081963,161.067551 44.931564,152.797256 52.972149,144.721268 
	C53.471607,144.219620 54.489120,144.233749 55.708771,144.466492 
	C56.099300,150.616760 56.046669,156.308411 55.641029,162.034943 
	C52.071640,165.000046 48.764523,167.837585 45.657005,170.879059 
	C38.251171,178.127518 30.939604,185.472275 23.589966,192.778122 
	C21.317774,188.479996 19.045584,184.181870 16.674927,179.525269 
z"/>
<path fill="#161B59" opacity="1.000000" stroke="none" 
	d="
M203.256119,177.005417 
	C205.041367,175.966385 207.137756,175.243073 208.562866,173.838608 
	C220.529648,162.045105 232.336288,150.089142 244.295654,138.288025 
	C246.014832,136.591614 248.291702,135.460373 250.665024,134.034515 
	C250.694443,138.388702 250.369324,142.775970 249.659241,147.617188 
	C247.866211,149.197342 246.339554,150.204330 245.068573,151.468369 
	C233.500534,162.973160 222.047882,174.595337 210.368958,185.985794 
	C208.484177,187.824036 205.650467,188.689331 203.173569,189.547180 
	C203.146530,185.061798 203.201324,181.033615 203.256119,177.005417 
z"/>
<path fill="#273385" opacity="1.000000" stroke="none" 
	d="
M188.082932,90.002899 
	C189.194473,89.362190 190.509125,88.925125 191.386749,88.049866 
	C202.529587,76.937363 213.609619,65.761902 224.851074,54.304070 
	C227.269699,57.115128 229.542877,60.224586 231.628204,63.801117 
	C220.954941,74.684486 210.435822,85.067398 200.036026,95.568459 
	C198.988998,96.625694 198.663773,98.397789 197.547379,99.909042 
	C194.052231,99.979942 191.013290,99.979942 188.082932,99.979942 
	C188.082932,96.196548 188.082932,93.099724 188.082932,90.002899 
z"/>
<path fill="#101349" opacity="1.000000" stroke="none" 
	d="
M239.952484,181.994904 
	C227.558411,208.573288 208.350037,228.430954 181.386673,240.680267 
	C181.896652,238.854385 182.522507,237.108475 183.695923,235.889816 
	C188.841507,230.545853 194.221115,225.426498 199.338531,220.056702 
	C200.603592,218.729263 201.203842,216.768234 202.467117,215.064178 
	C204.438644,213.964355 206.277924,213.127594 207.630447,211.796295 
	C216.653183,202.915070 225.519806,193.874786 234.578583,185.031097 
	C236.001648,183.641830 238.143173,182.988510 239.952484,181.994904 
z"/>
<path fill="#2E3C96" opacity="1.000000" stroke="none" 
	d="
M214.694733,42.930870 
	C213.877884,44.685902 212.955582,46.444710 211.629028,47.811054 
	C203.101410,56.594456 194.485245,65.291901 185.537140,74.029434 
	C183.387863,69.486580 181.599609,64.931885 179.958221,60.049335 
	C187.091324,52.293083 194.107346,44.892284 201.034882,37.409561 
	C202.212967,36.137054 203.011459,34.513130 203.985336,33.051567 
	C207.457672,36.285427 210.929993,39.519287 214.694733,42.930870 
z"/>
<path fill="#161B58" opacity="1.000000" stroke="none" 
	d="
M150.995972,250.958557 
	C145.955414,251.628876 140.914871,252.299210 135.440628,252.579758 
	C136.049484,250.581863 136.856445,248.742126 138.172791,247.403168 
	C146.761383,238.667130 155.503174,230.081558 164.077438,221.331696 
	C165.367493,220.015259 166.043625,218.097229 167.460449,216.359497 
	C172.612900,216.327332 177.308655,216.393158 181.998047,216.795929 
	C180.988785,218.594299 180.177124,220.244324 178.952087,221.486755 
	C170.668900,229.887436 162.268417,238.172485 153.988602,246.576431 
	C152.766998,247.816376 151.982651,249.487137 150.995972,250.958557 
z"/>
<path fill="#1C246A" opacity="1.000000" stroke="none" 
	d="
M108.941254,251.171585 
	C104.777039,250.369385 100.612831,249.567184 96.293839,248.202087 
	C97.422676,245.929535 98.534584,244.051331 100.019173,242.538986 
	C106.994476,235.433212 114.124077,228.478455 121.066711,221.341492 
	C122.356621,220.015488 123.041153,218.100601 124.462631,216.360840 
	C129.948196,216.329285 134.976196,216.394379 139.997375,216.796371 
	C138.985291,218.597321 138.170822,220.249329 136.943787,221.494888 
	C128.998337,229.560333 120.919052,237.494156 112.993935,245.579239 
	C111.400124,247.205246 110.279854,249.295410 108.941254,251.171585 
z"/>
<path fill="#26317E" opacity="1.000000" stroke="none" 
	d="
M198.003586,99.838135 
	C198.663773,98.397789 198.988998,96.625694 200.036026,95.568459 
	C210.435822,85.067398 220.954941,74.684486 231.745438,64.124718 
	C234.039948,67.399864 236.029373,70.818481 238.099197,74.588089 
	C236.577011,76.002060 234.755341,76.841850 233.407852,78.164658 
	C225.385757,86.039818 217.517471,94.071770 209.486664,101.937881 
	C207.878128,103.513443 205.790756,104.600151 203.507980,105.583031 
	C203.059662,101.885254 201.199112,100.234566 198.003586,99.838135 
z"/>
<path fill="#3241A1" opacity="1.000000" stroke="none" 
	d="
M23.675165,193.079041 
	C30.939604,185.472275 38.251171,178.127518 45.657005,170.879059 
	C48.764523,167.837585 52.071640,165.000046 55.721436,162.497223 
	C56.101772,168.616440 56.048702,174.308243 55.651272,180.034119 
	C47.108574,187.898453 38.910233,195.728668 30.711891,203.558899 
	C28.394716,200.165924 26.077539,196.772949 23.675165,193.079041 
z"/>
<path fill="#141853" opacity="1.000000" stroke="none" 
	d="
M203.255402,190.004379 
	C205.650467,188.689331 208.484177,187.824036 210.368958,185.985794 
	C222.047882,174.595337 233.500534,162.973160 245.068573,151.468369 
	C246.339554,150.204330 247.866211,149.197342 249.613892,148.034241 
	C249.001007,152.734711 248.048523,157.472092 246.655273,162.608307 
	C245.436584,163.246918 244.422180,163.251785 243.915833,163.761429 
	C234.883331,172.852570 225.950500,182.042801 216.911224,191.127121 
	C212.789490,195.269424 209.961700,201.089386 203.173401,201.549789 
	C203.146027,197.398224 203.200714,193.701309 203.255402,190.004379 
z"/>
<path fill="#1A2163" opacity="1.000000" stroke="none" 
	d="
M109.248856,251.415253 
	C110.279854,249.295410 111.400124,247.205246 112.993935,245.579239 
	C120.919052,237.494156 128.998337,229.560333 136.943787,221.494888 
	C138.170822,220.249329 138.985291,218.597321 140.452759,216.698898 
	C145.277817,216.329147 149.640656,216.393768 153.996552,216.795349 
	C152.993790,218.587494 152.190598,220.232910 150.971420,221.467529 
	C142.025711,230.526596 132.970627,239.477646 124.024536,248.536346 
	C122.802773,249.773499 121.993843,251.418365 120.993774,252.874466 
	C117.181335,252.469284 113.368904,252.064102 109.248856,251.415253 
z"/>
<path fill="#12164E" opacity="1.000000" stroke="none" 
	d="
M203.255463,202.004425 
	C209.961700,201.089386 212.789490,195.269424 216.911224,191.127121 
	C225.950500,182.042801 234.883331,172.852570 243.915833,163.761429 
	C244.422180,163.251785 245.436584,163.246918 246.572647,163.000244 
	C244.715439,169.114624 242.500122,175.235886 240.118652,181.676025 
	C238.143173,182.988510 236.001648,183.641830 234.578583,185.031097 
	C225.519806,193.874786 216.653183,202.915070 207.630447,211.796295 
	C206.277924,213.127594 204.438644,213.964355 202.415298,215.016418 
	C202.006058,215.002914 201.906113,214.906143 202.089661,214.531403 
	C202.600616,210.105927 202.928040,206.055176 203.255463,202.004425 
z"/>
<path fill="#1F2871" opacity="1.000000" stroke="none" 
	d="
M124.005066,216.457474 
	C123.041153,218.100601 122.356621,220.015488 121.066711,221.341492 
	C114.124077,228.478455 106.994476,235.433212 100.019173,242.538986 
	C98.534584,244.051331 97.422676,245.929535 95.994522,247.984924 
	C92.040886,247.152191 88.231789,245.973694 84.210358,244.190491 
	C85.069794,242.152725 85.996376,240.577240 87.238220,239.310944 
	C92.930756,233.506332 98.808975,227.880295 104.389336,221.971786 
	C105.718102,220.564880 106.156921,218.317444 107.463318,216.359787 
	C113.282722,216.327805 118.643890,216.392639 124.005066,216.457474 
z"/>
<path fill="#181E5D" opacity="1.000000" stroke="none" 
	d="
M121.456795,252.924164 
	C121.993843,251.418365 122.802773,249.773499 124.024536,248.536346 
	C132.970627,239.477646 142.025711,230.526596 150.971420,221.467529 
	C152.190598,220.232910 152.993790,218.587494 154.450562,216.697586 
	C158.942261,216.327744 162.973007,216.392609 167.003754,216.457474 
	C166.043625,218.097229 165.367493,220.015259 164.077438,221.331696 
	C155.503174,230.081558 146.761383,238.667130 138.172791,247.403168 
	C136.856445,248.742126 136.049484,250.581863 134.999268,252.545334 
	C130.634338,252.925079 126.277069,252.949478 121.456795,252.924164 
z"/>
<path fill="#31419F" opacity="1.000000" stroke="none" 
	d="
M203.806793,32.769138 
	C203.011459,34.513130 202.212967,36.137054 201.034882,37.409561 
	C194.107346,44.892284 187.091324,52.293083 179.686142,59.828266 
	C176.856293,56.245369 174.445419,52.555695 172.189941,48.581245 
	C179.769012,41.117126 187.192688,33.937786 194.616364,26.758442 
	C197.620331,28.667862 200.624298,30.577288 203.806793,32.769138 
z"/>
<path fill="#253080" opacity="1.000000" stroke="none" 
	d="
M72.004745,238.973923 
	C67.166092,236.049072 62.327446,233.124222 57.239288,229.627136 
	C58.609085,226.920044 60.273666,224.817657 61.834484,222.640884 
	C63.284504,220.618637 64.623810,218.517014 66.471764,216.359375 
	C74.622864,216.331207 82.314072,216.394012 90.005234,216.810333 
	C88.515923,219.430130 87.244423,221.882919 85.494514,223.925949 
	C81.113487,229.040924 76.515625,233.970169 72.004745,238.973923 
z"/>
<path fill="#222C78" opacity="1.000000" stroke="none" 
	d="
M72.221901,239.243805 
	C76.515625,233.970169 81.113487,229.040924 85.494514,223.925949 
	C87.244423,221.882919 88.515923,219.430130 90.463539,216.713928 
	C96.282944,216.328186 101.644012,216.392395 107.005081,216.456604 
	C106.156921,218.317444 105.718102,220.564880 104.389336,221.971786 
	C98.808975,227.880295 92.930756,233.506332 87.238220,239.310944 
	C85.996376,240.577240 85.069794,242.152725 83.941864,243.963440 
	C80.070175,242.731934 76.254616,241.122818 72.221901,239.243805 
z"/>
<path fill="#3E52BF" opacity="1.000000" stroke="none" 
	d="
M117.977226,27.581360 
	C119.035637,25.503582 119.775719,23.166838 121.214363,21.398390 
	C124.972054,16.779308 129.035400,12.408884 132.979584,7.590971 
	C139.473251,7.926417 145.964203,8.610203 152.749710,9.886013 
	C151.950058,12.231456 151.046356,14.146214 149.724625,15.706972 
	C146.249512,19.810574 142.592499,23.760132 138.592270,27.787552 
	C131.443481,27.729820 124.710350,27.655590 117.977226,27.581360 
z"/>
<path fill="#3445A6" opacity="1.000000" stroke="none" 
	d="
M194.437622,26.449841 
	C187.192688,33.937786 179.769012,41.117126 171.903946,48.424553 
	C168.654602,45.644547 165.846649,42.736454 163.071991,39.495003 
	C164.708847,37.302433 166.285568,35.419250 167.921188,33.588673 
	C172.286041,28.703562 176.676178,23.841051 181.056274,18.969563 
	C185.457153,21.360123 189.858017,23.750679 194.437622,26.449841 
z"/>
<path fill="#2C3990" opacity="1.000000" stroke="none" 
	d="
M66.011864,216.450348 
	C64.623810,218.517014 63.284504,220.618637 61.834484,222.640884 
	C60.273666,224.817657 58.609085,226.920044 56.975281,229.395844 
	C50.619400,224.079559 44.278019,218.422318 38.186867,212.384491 
	C41.518105,209.276047 44.565166,206.508545 47.690376,203.832306 
	C50.412071,201.501633 53.221958,199.273956 56.076748,197.461243 
	C56.180321,202.250031 56.130203,206.580139 56.242229,210.906052 
	C56.329018,214.257294 58.118904,216.072906 61.543888,216.184616 
	C63.034515,216.233231 64.522614,216.359390 66.011864,216.450348 
z"/>
<path fill="#131750" opacity="1.000000" stroke="none" 
	d="
M151.406433,250.976898 
	C151.982651,249.487137 152.766998,247.816376 153.988602,246.576431 
	C162.268417,238.172485 170.668900,229.887436 178.952087,221.486755 
	C180.177124,220.244324 180.988785,218.594299 182.447174,216.698410 
	C186.268829,216.328140 189.635025,216.392334 192.993652,216.793518 
	C191.987366,218.590332 191.178604,220.236694 189.958557,221.479172 
	C182.984543,228.581345 175.874527,235.550064 168.910370,242.661713 
	C167.704849,243.892761 166.976364,245.590973 166.027557,247.073425 
	C161.290665,248.380707 156.553772,249.687973 151.406433,250.976898 
z"/>
<path fill="#2F3D99" opacity="1.000000" stroke="none" 
	d="
M55.992882,197.000763 
	C53.221958,199.273956 50.412071,201.501633 47.690376,203.832306 
	C44.565166,206.508545 41.518105,209.276047 38.066837,212.062790 
	C35.442669,209.461990 33.188759,206.802292 30.823370,203.850739 
	C38.910233,195.728668 47.108574,187.898453 55.733524,180.495804 
	C56.104385,186.282516 56.048634,191.641632 55.992882,197.000763 
z"/>
<path fill="#3B4DB6" opacity="1.000000" stroke="none" 
	d="
M139.007935,27.771053 
	C142.592499,23.760132 146.249512,19.810574 149.724625,15.706972 
	C151.046356,14.146214 151.950058,12.231456 153.080215,10.089820 
	C157.927200,10.892480 162.738266,12.083359 167.771790,13.878608 
	C166.298340,16.853033 164.728745,19.327324 162.878433,21.570000 
	C159.679779,25.446934 156.306931,29.180138 152.652069,32.908638 
	C147.867310,31.152782 143.437622,29.461918 139.007935,27.771053 
z"/>
<path fill="#384AAF" opacity="1.000000" stroke="none" 
	d="
M153.007156,32.973633 
	C156.306931,29.180138 159.679779,25.446934 162.878433,21.570000 
	C164.728745,19.327324 166.298340,16.853033 168.049835,14.110683 
	C172.252792,15.308681 176.400192,16.878971 180.801941,18.709412 
	C176.676178,23.841051 172.286041,28.703562 167.921188,33.588673 
	C166.285568,35.419250 164.708847,37.302433 162.759857,39.385605 
	C159.278687,37.397591 156.142914,35.185612 153.007156,32.973633 
z"/>
<path fill="#12164E" opacity="1.000000" stroke="none" 
	d="
M166.412201,247.050903 
	C166.976364,245.590973 167.704849,243.892761 168.910370,242.661713 
	C175.874527,235.550064 182.984543,228.581345 189.958557,221.479172 
	C191.178604,220.236694 191.987366,218.590332 193.414719,216.694489 
	C196.530945,215.807693 199.218521,215.356918 201.906113,214.906143 
	C201.906113,214.906143 202.006058,215.002914 202.057877,215.050690 
	C201.203842,216.768234 200.603592,218.729263 199.338531,220.056702 
	C194.221115,225.426498 188.841507,230.545853 183.695923,235.889816 
	C182.522507,237.108475 181.896652,238.854385 181.027863,240.734390 
	C176.290253,243.083588 171.543564,245.055984 166.412201,247.050903 
z"/>
<path fill="#D7D8D8" opacity="1.000000" stroke="none" 
	d="
M202.089661,214.531403 
	C199.218521,215.356918 196.530945,215.807693 193.422302,216.357498 
	C189.635025,216.392334 186.268829,216.328140 182.453506,216.361465 
	C177.308655,216.393158 172.612900,216.327332 167.460449,216.359497 
	C162.973007,216.392609 158.942261,216.327744 154.457520,216.360626 
	C149.640656,216.393768 145.277817,216.329147 140.459595,216.362000 
	C134.976196,216.394379 129.948196,216.329285 124.462631,216.360840 
	C118.643890,216.392639 113.282722,216.327805 107.463310,216.359787 
	C101.644012,216.392395 96.282944,216.328186 90.463577,216.360397 
	C82.314072,216.394012 74.622864,216.331207 66.471764,216.359375 
	C64.522614,216.359390 63.034515,216.233231 61.543888,216.184616 
	C58.118904,216.072906 56.329018,214.257294 56.242229,210.906052 
	C56.130203,206.580139 56.180321,202.250031 56.076748,197.461243 
	C56.048634,191.641632 56.104385,186.282516 56.077881,180.461700 
	C56.048702,174.308243 56.101772,168.616440 56.074440,162.462372 
	C56.046669,156.308411 56.099300,150.616760 56.073730,144.462433 
	C56.046101,137.975342 56.096672,131.950897 56.070801,125.463257 
	C56.044468,119.641953 56.094582,114.283836 56.070511,108.462891 
	C56.503067,101.082985 56.503067,101.082985 67.295387,99.611099 
	C68.448219,90.922668 69.587212,82.338562 70.859116,73.377632 
	C74.953606,65.588211 78.233276,57.696789 83.027649,50.868961 
	C91.390862,38.958599 103.157623,31.413511 117.659653,27.696419 
	C124.710350,27.655590 131.443481,27.729820 138.592270,27.787552 
	C143.437622,29.461918 147.867310,31.152782 152.652069,32.908642 
	C156.142914,35.185612 159.278687,37.397591 162.726562,39.718964 
	C165.846649,42.736454 168.654602,45.644547 171.748550,48.709332 
	C174.445419,52.555695 176.856293,56.245369 179.539246,60.156113 
	C181.599609,64.931885 183.387863,69.486580 185.368530,74.376350 
	C186.335648,79.536476 187.110367,84.361534 187.984009,89.594742 
	C188.082932,93.099724 188.082932,96.196548 188.082932,99.979942 
	C191.013290,99.979942 194.052231,99.979942 197.547379,99.909042 
	C201.199112,100.234566 203.059662,101.885254 203.172546,105.631203 
	C203.199509,112.033302 203.145706,118.058006 203.173920,124.545143 
	C203.201019,131.365768 203.146118,137.723953 203.173309,144.544647 
	C203.200546,150.365692 203.145691,155.724228 203.172760,161.544464 
	C203.200439,166.699158 203.146240,171.392136 203.174072,176.545258 
	C203.201324,181.033615 203.146530,185.061798 203.173569,189.547180 
	C203.200714,193.701309 203.146027,197.398224 203.173401,201.549789 
	C202.928040,206.055176 202.600616,210.105927 202.089661,214.531403 
M142.931763,99.971039 
	C150.771027,99.971039 158.610306,99.971039 167.901093,99.971039 
	C166.670868,91.659843 165.576538,84.266716 164.350769,76.112389 
	C162.827179,72.745872 161.303589,69.379349 159.627014,65.372131 
	C156.150574,61.741436 152.674133,58.110737 148.742035,53.997627 
	C143.998627,50.856682 139.092255,48.220158 132.599991,48.235832 
	C128.307175,48.363628 123.864922,47.819412 119.747269,48.734997 
	C101.456741,52.802025 88.881531,70.605644 89.225471,91.867355 
	C89.343430,94.464058 89.461388,97.060753 89.587425,99.835236 
	C95.781067,99.835236 101.393822,99.835236 107.934586,99.963478 
	C113.958328,99.920700 119.982079,99.877922 126.930794,99.966545 
	C131.954926,99.923645 136.979065,99.880753 142.931763,99.971039 
M140.500000,196.000000 
	C116.773537,196.000000 93.047073,196.000000 69.450783,196.000000 
	C69.450783,199.142532 69.450783,201.382355 69.450783,203.637329 
	C109.403130,203.637329 148.954575,203.637329 188.640457,203.637329 
	C188.640457,201.035568 188.640457,198.792999 188.640457,196.000000 
	C172.725510,196.000000 157.112747,196.000000 140.500000,196.000000 
M97.500000,142.915588 
	C88.099007,142.915588 78.698006,142.915588 69.466019,142.915588 
	C69.466019,146.105865 69.466019,148.333893 69.466019,150.553772 
	C109.434723,150.553772 148.977524,150.553772 188.626953,150.553772 
	C188.626953,147.937744 188.626953,145.697159 188.626953,142.915421 
	C158.365692,142.915421 128.432846,142.915421 97.500000,142.915588 
M75.621826,187.901993 
	C113.212082,187.901993 150.802338,187.901993 188.512756,187.901993 
	C188.512756,184.911270 188.512756,182.555222 188.512756,180.301849 
	C148.516785,180.301849 108.971352,180.301849 69.407784,180.301849 
	C69.407784,182.967285 69.407784,185.200043 69.407784,187.901794 
	C71.396767,187.901794 73.030952,187.901794 75.621826,187.901993 
M109.500000,170.926071 
	C135.884995,170.926071 162.269989,170.926071 188.552246,170.926071 
	C188.552246,167.778748 188.552246,165.541473 188.552246,163.279144 
	C148.602951,163.279144 109.061234,163.279144 69.357864,163.279144 
	C69.357864,165.886017 69.357864,168.122208 69.357864,170.925934 
	C82.612236,170.925934 95.556122,170.925934 109.500000,170.926071 
M167.499863,122.905899 
	C134.781647,122.905899 102.063438,122.905899 69.444901,122.905899 
	C69.444901,126.046707 69.444901,128.281815 69.444901,130.567963 
	C109.394371,130.567963 148.938644,130.567963 188.646408,130.567963 
	C188.646408,127.971275 188.646408,125.730995 188.646408,122.905724 
	C181.731064,122.905724 175.115417,122.905724 167.499863,122.905899 
z"/>
<path fill="#3749AF" opacity="1.000000" stroke="none" 
	d="
M133.100204,48.943909 
	C139.092255,48.220158 143.998627,50.856682 148.833710,54.590321 
	C135.964127,68.274841 122.967537,81.332123 110.092644,94.508324 
	C108.702606,95.930870 108.018265,98.042984 107.006577,99.835236 
	C101.393822,99.835236 95.781067,99.835236 89.587425,99.835236 
	C89.461388,97.060753 89.343430,94.464058 89.648239,91.382957 
	C91.341278,90.134789 92.833450,89.592125 93.848198,88.573746 
	C106.971764,75.403221 120.027405,62.165016 133.100204,48.943909 
z"/>
<path fill="#8C8C8C" opacity="1.000000" stroke="none" 
	d="
M141.000000,196.000000 
	C157.112747,196.000000 172.725510,196.000000 188.640457,196.000000 
	C188.640457,198.792999 188.640457,201.035568 188.640457,203.637329 
	C148.954575,203.637329 109.403130,203.637329 69.450783,203.637329 
	C69.450783,201.382355 69.450783,199.142532 69.450783,196.000000 
	C93.047073,196.000000 116.773537,196.000000 141.000000,196.000000 
z"/>
<path fill="#8F8F8F" opacity="1.000000" stroke="none" 
	d="
M98.000000,142.915497 
	C128.432846,142.915421 158.365692,142.915421 188.626953,142.915421 
	C188.626953,145.697159 188.626953,147.937744 188.626953,150.553772 
	C148.977524,150.553772 109.434723,150.553772 69.466019,150.553772 
	C69.466019,148.333893 69.466019,146.105865 69.466019,142.915588 
	C78.698006,142.915588 88.099007,142.915588 98.000000,142.915497 
z"/>
<path fill="#8F8F8F" opacity="1.000000" stroke="none" 
	d="
M75.143486,187.901886 
	C73.030952,187.901794 71.396767,187.901794 69.407784,187.901794 
	C69.407784,185.200043 69.407784,182.967285 69.407784,180.301849 
	C108.971352,180.301849 148.516785,180.301849 188.512756,180.301849 
	C188.512756,182.555222 188.512756,184.911270 188.512756,187.901993 
	C150.802338,187.901993 113.212082,187.901993 75.143486,187.901886 
z"/>
<path fill="#8F8F8F" opacity="1.000000" stroke="none" 
	d="
M109.000000,170.925995 
	C95.556122,170.925934 82.612236,170.925934 69.357864,170.925934 
	C69.357864,168.122208 69.357864,165.886017 69.357864,163.279144 
	C109.061234,163.279144 148.602951,163.279144 188.552246,163.279144 
	C188.552246,165.541473 188.552246,167.778748 188.552246,170.926071 
	C162.269989,170.926071 135.884995,170.926071 109.000000,170.925995 
z"/>
<path fill="#8F8F8F" opacity="1.000000" stroke="none" 
	d="
M167.999817,122.905807 
	C175.115417,122.905724 181.731064,122.905724 188.646408,122.905724 
	C188.646408,125.730995 188.646408,127.971275 188.646408,130.567963 
	C148.938644,130.567963 109.394371,130.567963 69.444901,130.567963 
	C69.444901,128.281815 69.444901,126.046707 69.444901,122.905899 
	C102.063438,122.905899 134.781647,122.905899 167.999817,122.905807 
z"/>
<path fill="#3344A5" opacity="1.000000" stroke="none" 
	d="
M107.470581,99.899353 
	C108.018265,98.042984 108.702606,95.930870 110.092644,94.508324 
	C122.967537,81.332123 135.964127,68.274841 149.061539,54.831528 
	C152.674133,58.110737 156.150574,61.741436 159.367615,65.734863 
	C157.582016,67.055649 155.822159,67.776077 154.567307,69.010063 
	C145.921478,77.512131 137.330719,86.072250 128.859680,94.747902 
	C127.547752,96.091522 126.939484,98.122200 126.005821,99.835152 
	C119.982079,99.877922 113.958328,99.920700 107.470581,99.899353 
z"/>
<path fill="#3D4FB8" opacity="1.000000" stroke="none" 
	d="
M132.850098,48.589867 
	C120.027405,62.165016 106.971764,75.403221 93.848198,88.573746 
	C92.833450,89.592125 91.341278,90.134789 89.752884,90.959549 
	C88.881531,70.605644 101.456741,52.802025 119.747269,48.734997 
	C123.864922,47.819412 128.307175,48.363628 132.850098,48.589867 
z"/>
<path fill="#31409D" opacity="1.000000" stroke="none" 
	d="
M126.468307,99.900848 
	C126.939484,98.122200 127.547752,96.091522 128.859680,94.747902 
	C137.330719,86.072250 145.921478,77.512131 154.567307,69.010063 
	C155.822159,67.776077 157.582016,67.055649 159.444092,66.055206 
	C161.303589,69.379349 162.827179,72.745872 164.031494,76.543152 
	C156.599197,83.788628 149.466400,90.583122 142.417816,97.463867 
	C141.951508,97.919083 142.126495,99.031258 142.003189,99.837852 
	C136.979065,99.880753 131.954926,99.923645 126.468307,99.900848 
z"/>
<path fill="#303D97" opacity="1.000000" stroke="none" 
	d="
M142.467468,99.904449 
	C142.126495,99.031258 141.951508,97.919083 142.417816,97.463867 
	C149.466400,90.583122 156.599197,83.788628 164.097214,76.923744 
	C165.576538,84.266716 166.670868,91.659843 167.901093,99.971039 
	C158.610306,99.971039 150.771027,99.971039 142.467468,99.904449 
z"/>
</svg>