<?xml version="1.0" standalone="no"?>
<!DOCTYPE svg PUBLIC "-//W3C//DTD SVG 20010904//EN" "http://www.w3.org/TR/2001/REC-SVG-20010904/DTD/svg10.dtd">
<!-- Created using Krita: https://krita.org -->
<svg xmlns="http://www.w3.org/2000/svg" 
    xmlns:xlink="http://www.w3.org/1999/xlink"
    xmlns:krita="http://krita.org/namespaces/svg/krita"
    xmlns:sodipodi="http://sodipodi.sourceforge.net/DTD/sodipodi-0.dtd"
    width="61.44pt"
    height="61.44pt"
    viewBox="0 0 64 64">
<defs/>
<path id="shape0" transform="translate(8.88, 1.26)" fill="#fe3521" fill-rule="evenodd" stroke="#780422" stroke-width="2.88" stroke-linecap="square" stroke-linejoin="bevel" d="M0 11.64C4.52205 4.93487 10.3224 0.0193856 19.62 0C29.2452 0.527382 36.9654 2.00729 39.9 5.88C47.3306 11.4452 49.1185 18.7163 49.74 26.34C50.1855 36.2333 46.7661 44.3428 40.98 51.36C34.8543 55.7356 27.3872 56.7581 19.68 57.18C8.67949 54.1695 3.53866 45.0499 0 34.26C6.32015 40.7595 10.3599 41.0405 18.6 40.98C28.5677 37.1638 31.9301 35.5545 33.9 28.38C33.0428 17.8338 32.8926 15.9404 24.24 10.86C18.6011 8.58304 10.5211 8.84304 0 11.64Z" sodipodi:nodetypes="ccccccccccc"/>
</svg>
