<svg version="1.1" id="Layer_1" xmlns="http://www.w3.org/2000/svg" xmlns:xlink="http://www.w3.org/1999/xlink" x="0px" y="0px"
	 width="100%" viewBox="0 0 256 256" enable-background="new 0 0 256 256" xml:space="preserve">
<path fill="#000101" opacity="1.000000" stroke="none" 
	d="
M181.000000,0.999998 
	C206.322159,1.000000 231.644302,1.000000 256.983215,1.000000 
	C256.983215,86.284500 256.983215,171.569016 256.983215,256.926758 
	C171.753204,256.926758 86.506332,256.926758 1.129728,256.926758 
	C1.129728,171.790985 1.129728,86.581703 1.129728,1.000000 
	C50.020267,1.000000 99.041473,1.000000 148.699249,1.408414 
	C159.251678,1.876367 169.167557,1.954495 179.083420,1.952259 
	C179.722351,1.952115 180.361145,1.331811 181.000000,0.999998 
M203.496384,227.920868 
	C217.747437,216.781113 229.344238,203.427673 237.849854,186.647598 
	C238.558487,185.062973 239.267120,183.478333 240.379517,181.321457 
	C249.994644,160.738800 253.091110,139.016785 250.741074,116.612320 
	C248.812668,98.227379 243.288513,80.883354 232.610947,64.892647 
	C231.751160,63.503201 230.891373,62.113750 229.718338,60.053944 
	C209.243210,30.834072 181.240982,13.640946 146.082108,8.259214 
	C139.849640,7.305218 133.376663,7.922589 126.215416,7.980041 
	C124.858452,8.041652 123.501488,8.103263 121.206367,8.021804 
	C105.485451,7.615500 90.925003,11.966906 76.396492,19.038399 
	C75.420212,19.701233 74.443932,20.364067 72.683075,20.899670 
	C71.919922,21.209743 71.122726,21.455536 70.398460,21.839054 
	C17.412369,49.896690 -7.537018,116.130638 13.337325,172.791290 
	C14.193271,174.637833 15.049216,176.484390 16.138132,178.974930 
	C21.848942,188.445129 26.867832,198.430328 33.439453,207.259842 
	C42.370708,219.259674 53.465832,229.222412 67.519531,236.088577 
	C67.519531,236.088577 67.979843,236.090912 67.946602,236.383591 
	C67.946602,236.383591 68.350388,236.590164 68.350388,236.590164 
	C68.350388,236.590164 68.768433,236.504059 69.118019,236.961014 
	C69.632339,237.216019 70.146667,237.471039 70.792099,238.497269 
	C84.741753,246.372803 99.785675,250.941895 115.646416,252.493774 
	C145.494125,255.414215 173.097626,248.964874 198.388306,231.571457 
	C199.886276,230.467911 201.384247,229.364365 203.496384,227.920868 
z"/>
<path fill="#FFFFFF" opacity="1.000000" stroke="none" 
	d="
M180.531342,0.999998 
	C180.361145,1.331811 179.722351,1.952115 179.083420,1.952259 
	C169.167557,1.954495 159.251678,1.876367 149.167908,1.408414 
	C159.354233,1.000000 169.708450,1.000000 180.531342,0.999998 
z"/>
<path fill="#F1FB24" opacity="1.000000" stroke="none" 
	d="
M15.905161,178.330933 
	C15.049216,176.484390 14.193271,174.637833 13.910463,172.441101 
	C21.272472,168.706299 28.061346,165.321686 35.143600,161.977997 
	C36.144169,161.978378 36.851364,161.937836 37.558556,161.897308 
	C37.058769,161.594818 36.558987,161.292313 36.020477,160.660980 
	C34.740501,154.343750 33.023712,148.403885 32.405983,142.351852 
	C31.896681,137.362091 32.688911,132.239487 32.904556,126.870789 
	C32.543888,126.179688 32.183025,125.793549 31.822166,125.407402 
	C31.547235,125.900116 31.272303,126.392822 30.537180,126.979454 
	C23.044346,127.073372 16.011700,127.073372 8.785587,127.073372 
	C8.889779,124.848557 8.964886,123.244812 9.064985,121.107399 
	C17.197788,121.107399 25.083111,121.107399 32.975285,121.401382 
	C33.107147,122.174736 33.232159,122.654091 33.596096,124.049614 
	C33.839100,122.610779 34.048294,122.134163 33.958138,121.723213 
	C33.830387,121.140854 33.481956,120.606911 33.121651,119.680405 
	C33.650623,115.405891 33.788788,111.337769 35.021996,107.634277 
	C37.787056,99.330421 41.096497,91.207825 44.513214,82.946838 
	C45.877602,80.932579 46.913052,78.982903 47.995583,76.750809 
	C48.113873,76.291290 48.185085,76.114197 48.534588,75.779877 
	C49.862049,74.070877 50.911217,72.519089 52.006538,70.715469 
	C52.128178,70.310555 52.203659,70.157471 52.532310,69.993729 
	C53.142551,69.692528 53.499619,69.402008 53.936787,68.752335 
	C56.975193,64.799828 59.486092,60.675026 62.987759,57.727089 
	C69.657722,52.111870 76.893402,47.168621 84.254234,41.958881 
	C85.422234,41.324070 86.230194,40.676746 87.174599,39.963734 
	C87.197662,39.919571 87.084282,39.941093 86.603912,39.970901 
	C85.502777,39.982136 84.768623,39.985092 83.773178,39.767784 
	C80.163803,33.373981 76.815727,27.200439 73.467651,21.026899 
	C74.443932,20.364067 75.420212,19.701233 77.025742,19.022346 
	C81.460716,25.268524 85.266441,31.530756 89.143143,38.052853 
	C89.794685,38.294941 90.375244,38.277164 91.331482,38.134109 
	C101.961868,35.327862 112.216576,32.646893 122.144524,30.051355 
	C122.144524,23.040236 122.144524,15.602554 122.144524,8.164873 
	C123.501488,8.103263 124.858452,8.041652 126.997528,8.109171 
	C128.265442,15.768087 128.751236,23.297874 129.211990,30.439608 
	C135.151184,31.169165 140.860001,31.117325 146.089157,32.675358 
	C155.855881,35.585365 165.344101,39.430180 175.081207,43.169327 
	C178.939194,44.734718 176.101791,41.558941 177.006378,40.545197 
	C180.130707,34.760483 183.203568,29.320723 186.339447,23.769396 
	C187.265198,24.254854 187.861221,24.525253 188.412140,24.868141 
	C188.963745,25.211473 189.470276,25.627218 190.090286,26.222168 
	C190.362137,26.698023 190.601059,26.885483 190.910767,27.348881 
	C187.294861,33.499249 183.668961,39.296234 179.904419,44.918884 
	C179.537994,45.143929 179.310211,45.543301 179.082428,45.942669 
	C179.402573,45.931026 179.722748,45.919388 180.365128,46.035049 
	C183.067520,48.090637 185.691116,49.787842 187.782150,51.990612 
	C194.013687,58.555126 200.036148,65.318123 206.285156,72.289139 
	C207.653915,74.071449 208.877823,75.568199 210.148956,77.408073 
	C213.450577,84.754410 217.243134,91.567551 219.803238,98.815987 
	C222.210114,105.630646 223.316025,112.904808 224.729767,120.192429 
	C224.465195,121.447990 224.465195,122.487907 224.465195,123.527832 
	C224.815918,123.541214 225.166656,123.554604 225.517380,123.567986 
	C225.686188,122.533127 225.854980,121.498260 226.481628,120.369156 
	C234.200470,120.274910 241.461472,120.274910 248.859222,120.274910 
	C248.859222,122.395081 248.859222,124.109818 248.859222,126.304832 
	C240.846252,126.304832 233.118347,126.304832 224.810455,126.304832 
	C226.154770,141.559830 223.584961,155.828308 218.386002,169.253250 
	C225.986832,173.703415 232.981308,177.798553 239.975769,181.893707 
	C239.267120,183.478333 238.558487,185.062973 237.297195,186.794800 
	C230.086456,183.154785 223.428360,179.367569 216.626129,175.404510 
	C216.035751,175.464325 215.589523,175.699982 215.076614,176.303085 
	C209.467346,189.248978 201.271957,199.869888 190.756531,209.065643 
	C189.263763,210.717331 188.133484,212.349655 186.635315,213.987854 
	C185.000168,214.667221 183.680328,215.258148 182.473724,216.026810 
	C167.975220,225.263184 152.681030,232.134674 134.678833,232.212982 
	C132.533783,232.546097 130.756912,232.792038 128.517075,233.035431 
	C122.983795,232.688858 117.660606,233.210190 112.896690,231.817886 
	C103.438248,229.053558 94.288033,225.234589 84.932251,221.509659 
	C83.597595,220.750076 82.341133,220.332306 81.022575,219.636261 
	C80.640335,219.046860 80.320206,218.735718 80.000076,218.424591 
	C79.812157,218.636429 79.624245,218.848251 79.436325,219.060074 
	C79.929008,219.401657 80.421692,219.743240 80.925117,220.412964 
	C80.964539,221.177780 80.993225,221.614502 80.966789,222.396851 
	C78.555565,226.949173 76.290771,231.211624 73.780052,235.323914 
	C73.141609,236.369614 71.721786,236.938217 70.660988,237.726044 
	C70.146667,237.471039 69.632339,237.216019 68.919662,236.593918 
	C68.500008,235.984589 68.252853,235.939285 67.979843,236.090912 
	C67.979843,236.090912 67.519531,236.088577 67.371063,235.702148 
	C70.462059,229.252274 73.701538,223.188828 77.092972,217.051025 
	C77.120720,217.004532 76.996498,217.032379 76.556229,216.928223 
	C65.286858,209.281067 55.864300,200.146591 49.119709,188.715347 
	C45.078762,181.866440 42.298149,174.273911 38.972973,166.673248 
	C38.652061,165.711960 38.309238,165.093002 37.966419,164.474060 
	C37.640656,165.274399 37.314896,166.074722 36.763550,167.141815 
	C29.660364,171.049347 22.782763,174.690140 15.905161,178.330933 
M218.409073,171.484558 
	C218.409073,171.484558 218.523590,171.415009 218.409073,171.484558 
M217.595764,173.519302 
	C217.595764,173.519302 217.475830,173.594788 217.595764,173.519302 
z"/>
<path fill="#1F73F9" opacity="1.000000" stroke="none" 
	d="
M32.968433,121.107399 
	C25.083111,121.107399 17.197788,121.107399 9.064985,121.107399 
	C8.964886,123.244812 8.889779,124.848557 8.785587,127.073372 
	C16.011700,127.073372 23.044346,127.073372 30.848339,127.065643 
	C32.047909,127.097191 32.476135,127.136467 32.904362,127.175743 
	C32.688911,132.239487 31.896681,137.362091 32.405983,142.351852 
	C33.023712,148.403885 34.740501,154.343750 35.765251,160.741913 
	C35.315907,161.413498 35.083061,161.675278 34.850220,161.937073 
	C28.061346,165.321686 21.272472,168.706299 14.104734,172.176865 
	C-7.537018,116.130638 17.412369,49.896690 70.398460,21.839054 
	C71.122726,21.455536 71.919922,21.209743 73.075363,20.963284 
	C76.815727,27.200439 80.163803,33.373981 83.757439,40.095158 
	C83.966736,41.077316 83.930466,41.511845 83.894196,41.946373 
	C76.893402,47.168621 69.657722,52.111870 62.987759,57.727089 
	C59.486092,60.675026 56.975193,64.799828 53.669487,68.765503 
	C52.974434,69.426682 52.626785,69.715538 52.279137,70.004395 
	C52.203659,70.157471 52.128178,70.310555 51.675713,70.643005 
	C44.909801,66.748657 38.520874,62.674946 31.872459,58.435783 
	C30.660181,60.476025 29.767040,61.979164 28.781153,63.638393 
	C35.435303,67.840538 41.845798,71.888817 48.256298,75.937096 
	C48.185085,76.114197 48.113873,76.291290 47.697365,76.892097 
	C46.296139,79.214348 45.240204,81.112885 44.184273,83.011429 
	C41.096497,91.207825 37.787056,99.330421 35.021996,107.634277 
	C33.788788,111.337769 33.650623,115.405891 33.043324,119.940643 
	C33.036930,120.750977 33.002682,120.929184 32.968433,121.107399 
z"/>
<path fill="#1F73F9" opacity="1.000000" stroke="none" 
	d="
M240.177643,181.607574 
	C232.981308,177.798553 225.986832,173.703415 218.386002,169.253250 
	C223.584961,155.828308 226.154770,141.559830 224.810455,126.304832 
	C233.118347,126.304832 240.846252,126.304832 248.859222,126.304832 
	C248.859222,124.109818 248.859222,122.395081 248.859222,120.274910 
	C241.461472,120.274910 234.200470,120.274910 226.234558,120.225739 
	C225.351196,120.109978 225.172760,120.043388 224.994339,119.976791 
	C223.316025,112.904808 222.210114,105.630646 219.803238,98.815987 
	C217.243134,91.567551 213.450577,84.754410 210.507980,77.370926 
	C218.185562,73.103668 225.551315,69.216682 232.917068,65.329697 
	C243.288513,80.883354 248.812668,98.227379 250.741074,116.612320 
	C253.091110,139.016785 249.994644,160.738800 240.177643,181.607574 
z"/>
<path fill="#1F73F9" opacity="1.000000" stroke="none" 
	d="
M189.996567,26.011219 
	C189.470276,25.627218 188.963745,25.211473 188.412140,24.868141 
	C187.861221,24.525253 187.265198,24.254854 186.339447,23.769396 
	C183.203568,29.320723 180.130707,34.760483 176.757248,40.695946 
	C175.953827,41.756439 175.451004,42.321232 174.948196,42.886024 
	C165.344101,39.430180 155.855881,35.585365 146.089157,32.675358 
	C140.860001,31.117325 135.151184,31.169165 129.211990,30.439608 
	C128.751236,23.297874 128.265442,15.768087 127.397194,8.026320 
	C133.376663,7.922589 139.849640,7.305218 146.082108,8.259214 
	C181.240982,13.640946 209.243210,30.834072 229.453583,60.485832 
	C221.505981,64.613007 213.823135,68.308289 206.140305,72.003571 
	C200.036148,65.318123 194.013687,58.555126 187.782150,51.990612 
	C185.691116,49.787842 183.067520,48.090637 180.348145,45.831406 
	C180.008957,45.500458 180.043060,45.093220 180.043060,45.093216 
	C183.668961,39.296234 187.294861,33.499249 190.962158,27.067600 
	C190.667908,26.292366 190.332230,26.151793 189.996567,26.011219 
z"/>
<path fill="#1F73F9" opacity="1.000000" stroke="none" 
	d="
M70.726547,238.111664 
	C71.721786,236.938217 73.141609,236.369614 73.780052,235.323914 
	C76.290771,231.211624 78.555565,226.949173 81.237610,222.227219 
	C82.712517,221.758453 83.861481,221.804947 85.010445,221.851456 
	C94.288033,225.234589 103.438248,229.053558 112.896690,231.817886 
	C117.660606,233.210190 122.983795,232.688858 128.558411,233.498413 
	C129.062744,239.529617 129.062744,245.095261 129.062744,251.032684 
	C131.972229,250.806046 133.684326,250.672668 135.047043,250.566513 
	C135.047043,244.033829 135.047043,238.079819 135.047043,232.125809 
	C152.681030,232.134674 167.975220,225.263184 182.473724,216.026810 
	C183.680328,215.258148 185.000168,214.667221 186.810699,214.283966 
	C190.883148,220.309494 194.412308,226.044769 197.941467,231.780029 
	C173.097626,248.964874 145.494125,255.414215 115.646416,252.493774 
	C99.785675,250.941895 84.741753,246.372803 70.726547,238.111664 
z"/>
<path fill="#1E73FA" opacity="1.000000" stroke="none" 
	d="
M38.951065,167.015610 
	C42.298149,174.273911 45.078762,181.866440 49.119709,188.715347 
	C55.864300,200.146591 65.286858,209.281067 76.593651,216.923172 
	C76.947121,217.050125 76.941025,217.125381 76.941025,217.125381 
	C73.701538,223.188828 70.462059,229.252274 67.144913,235.659332 
	C53.465832,229.222412 42.370708,219.259674 33.439453,207.259842 
	C26.867832,198.430328 21.848942,188.445129 16.021646,178.652924 
	C22.782763,174.690140 29.660364,171.049347 37.092178,167.149872 
	C38.081280,166.932648 38.516171,166.974136 38.951065,167.015610 
z"/>
<path fill="#1E73F9" opacity="1.000000" stroke="none" 
	d="
M216.770279,175.580368 
	C223.428360,179.367569 230.086456,183.154785 237.108795,187.061951 
	C229.344238,203.427673 217.747437,216.781113 202.907593,227.881943 
	C198.585541,221.577438 194.852280,215.311844 191.119034,209.046265 
	C201.271957,199.869888 209.467346,189.248978 215.356415,176.277527 
	C216.058701,175.783142 216.414490,175.681747 216.770279,175.580368 
z"/>
<path fill="#1F74F9" opacity="1.000000" stroke="none" 
	d="
M89.072166,37.792988 
	C85.266441,31.530756 81.460716,25.268524 77.313782,18.908661 
	C90.925003,11.966906 105.485451,7.615500 121.675446,8.093338 
	C122.144524,15.602554 122.144524,23.040236 122.144524,30.051355 
	C112.216576,32.646893 101.961868,35.327862 91.014725,38.068142 
	C89.905579,38.015968 89.488876,37.904476 89.072166,37.792988 
z"/>
<path fill="#E7F42E" opacity="1.000000" stroke="none" 
	d="
M206.285156,72.289139 
	C213.823135,68.308289 221.505981,64.613007 229.610199,60.821014 
	C230.891373,62.113750 231.751160,63.503201 232.764008,65.111176 
	C225.551315,69.216682 218.185562,73.103668 210.460754,77.027802 
	C208.877823,75.568199 207.653915,74.071449 206.285156,72.289139 
z"/>
<path fill="#E7F42D" opacity="1.000000" stroke="none" 
	d="
M190.756531,209.065643 
	C194.852280,215.311844 198.585541,221.577438 202.600510,228.051910 
	C201.384247,229.364365 199.886276,230.467911 198.164886,231.675751 
	C194.412308,226.044769 190.883148,220.309494 187.178604,214.278107 
	C188.133484,212.349655 189.263763,210.717331 190.756531,209.065643 
z"/>
<path fill="#E5F330" opacity="1.000000" stroke="none" 
	d="
M67.963226,236.237244 
	C68.252853,235.939285 68.500008,235.984589 68.744865,236.365448 
	C68.768433,236.504059 68.350388,236.590164 68.350388,236.590164 
	C68.350388,236.590164 67.946602,236.383591 67.963226,236.237244 
z"/>
<path fill="#E7F42D" opacity="1.000000" stroke="none" 
	d="
M48.534588,75.779877 
	C41.845798,71.888817 35.435303,67.840538 28.781153,63.638393 
	C29.767040,61.979164 30.660181,60.476025 31.872459,58.435783 
	C38.520874,62.674946 44.909801,66.748657 51.629559,70.894836 
	C50.911217,72.519089 49.862049,74.070877 48.534588,75.779877 
z"/>
<path fill="#DEEC32" opacity="1.000000" stroke="none" 
	d="
M134.678833,232.212982 
	C135.047043,238.079819 135.047043,244.033829 135.047043,250.566513 
	C133.684326,250.672668 131.972229,250.806046 129.062744,251.032684 
	C129.062744,245.095261 129.062744,239.529617 129.021393,233.500977 
	C130.756912,232.792038 132.533783,232.546097 134.678833,232.212982 
z"/>
<path fill="#E7F42D" opacity="1.000000" stroke="none" 
	d="
M44.513210,82.946838 
	C45.240204,81.112885 46.296139,79.214348 47.650284,77.174515 
	C46.913052,78.982903 45.877602,80.932579 44.513210,82.946838 
z"/>
<path fill="#E7F52F" opacity="1.000000" stroke="none" 
	d="
M224.729767,120.192429 
	C225.172760,120.043388 225.351196,120.109978 225.776703,120.319992 
	C225.854980,121.498260 225.686188,122.533127 225.517380,123.567986 
	C225.166656,123.554604 224.815918,123.541214 224.465195,123.527832 
	C224.465195,122.487907 224.465195,121.447990 224.729767,120.192429 
z"/>
<path fill="#E5F330" opacity="1.000000" stroke="none" 
	d="
M84.932251,221.509659 
	C83.861481,221.804947 82.712517,221.758453 81.292732,221.881592 
	C80.993225,221.614502 80.964539,221.177780 80.967812,220.370483 
	C80.999763,219.999908 81.084679,219.914520 81.084679,219.914520 
	C82.341133,220.332306 83.597595,220.750076 84.932251,221.509659 
z"/>
<path fill="#E8F52E" opacity="1.000000" stroke="none" 
	d="
M175.081207,43.169327 
	C175.451004,42.321232 175.953827,41.756439 176.705780,41.040901 
	C176.101791,41.558941 178.939194,44.734718 175.081207,43.169327 
z"/>
<path fill="#E7F42E" opacity="1.000000" stroke="none" 
	d="
M84.254242,41.958878 
	C83.930466,41.511845 83.966736,41.077316 84.018738,40.315422 
	C84.768623,39.985092 85.502777,39.982136 86.619308,39.989025 
	C87.001686,39.998871 87.038147,40.029423 87.038147,40.029423 
	C86.230194,40.676746 85.422234,41.324070 84.254242,41.958878 
z"/>
<path fill="#E6F42E" opacity="1.000000" stroke="none" 
	d="
M38.972973,166.673248 
	C38.516171,166.974136 38.081280,166.932648 37.317760,166.883118 
	C37.314896,166.074722 37.640656,165.274399 37.966419,164.474060 
	C38.309238,165.093002 38.652061,165.711960 38.972973,166.673248 
z"/>
<path fill="#E5F330" opacity="1.000000" stroke="none" 
	d="
M80.957069,220.042374 
	C80.421692,219.743240 79.929008,219.401657 79.436325,219.060074 
	C79.624245,218.848251 79.812157,218.636429 80.000076,218.424591 
	C80.320206,218.735718 80.640335,219.046860 81.022575,219.636261 
	C81.084679,219.914520 80.999763,219.999908 80.957069,220.042374 
z"/>
<path fill="#EAF72B" opacity="1.000000" stroke="none" 
	d="
M32.975285,121.401382 
	C33.002682,120.929184 33.036930,120.750977 33.149506,120.312515 
	C33.481956,120.606911 33.830387,121.140854 33.958138,121.723213 
	C34.048294,122.134163 33.839100,122.610779 33.596096,124.049614 
	C33.232159,122.654091 33.107147,122.174736 32.975285,121.401382 
z"/>
<path fill="#E6F42E" opacity="1.000000" stroke="none" 
	d="
M35.143600,161.977997 
	C35.083061,161.675278 35.315907,161.413498 35.803978,161.070755 
	C36.558987,161.292313 37.058769,161.594818 37.558556,161.897308 
	C36.851364,161.937836 36.144169,161.978378 35.143600,161.977997 
z"/>
<path fill="#EAF72B" opacity="1.000000" stroke="none" 
	d="
M32.904556,126.870789 
	C32.476135,127.136467 32.047909,127.097191 31.308525,126.971725 
	C31.272303,126.392822 31.547235,125.900116 31.822166,125.407402 
	C32.183025,125.793549 32.543888,126.179688 32.904556,126.870789 
z"/>
<path fill="#E8F52E" opacity="1.000000" stroke="none" 
	d="
M179.904419,44.918888 
	C180.043060,45.093220 180.008957,45.500458 180.025940,45.704102 
	C179.722748,45.919388 179.402573,45.931026 179.082428,45.942669 
	C179.310211,45.543301 179.537994,45.143929 179.904419,44.918888 
z"/>
<path fill="#E7F42D" opacity="1.000000" stroke="none" 
	d="
M216.626129,175.404510 
	C216.414490,175.681747 216.058701,175.783142 215.423096,175.910095 
	C215.589523,175.699982 216.035751,175.464325 216.626129,175.404510 
z"/>
<path fill="#E7F42D" opacity="1.000000" stroke="none" 
	d="
M52.532310,69.993729 
	C52.626785,69.715538 52.974434,69.426682 53.589386,69.124657 
	C53.499619,69.402008 53.142551,69.692528 52.532310,69.993729 
z"/>
<path fill="#E7F42E" opacity="1.000000" stroke="none" 
	d="
M89.143143,38.052853 
	C89.488876,37.904476 89.905579,38.015968 90.639053,38.193424 
	C90.375244,38.277164 89.794685,38.294941 89.143143,38.052853 
z"/>
<path fill="#E7F42D" opacity="1.000000" stroke="none" 
	d="
M218.466339,171.449783 
	C218.523590,171.415009 218.409073,171.484558 218.466339,171.449783 
z"/>
<path fill="#E7F42D" opacity="1.000000" stroke="none" 
	d="
M217.535797,173.557037 
	C217.475830,173.594788 217.595764,173.519302 217.535797,173.557037 
z"/>
<path fill="#E5F330" opacity="1.000000" stroke="none" 
	d="
M76.909698,217.055176 
	C76.996498,217.032379 77.120720,217.004532 77.092979,217.051025 
	C76.941025,217.125381 76.947121,217.050125 76.909698,217.055176 
z"/>
<path fill="#E7F42E" opacity="1.000000" stroke="none" 
	d="
M86.986290,39.980743 
	C87.084282,39.941093 87.197662,39.919571 87.174599,39.963734 
	C87.038147,40.029423 87.001686,39.998871 86.986290,39.980743 
z"/>
<path fill="#E8F52E" opacity="1.000000" stroke="none" 
	d="
M190.090286,26.222168 
	C190.332230,26.151793 190.667908,26.292366 190.952164,26.714218 
	C190.601059,26.885483 190.362137,26.698023 190.090286,26.222168 
z"/>
</svg>