<?xml version="1.0" encoding="UTF-8" standalone="no"?>
<!-- Created using Krita: https://krita.org -->

<svg
   width="256pt"
   height="256pt"
   viewBox="0 0 256.00001 256.00001"
   version="1.1"
   id="svg1"
   sodipodi:docname="RisingMoon-v03.svg"
   inkscape:version="1.3.2 (091e20ef0f, 2023-11-25)"
   xmlns:inkscape="http://www.inkscape.org/namespaces/inkscape"
   xmlns:sodipodi="http://sodipodi.sourceforge.net/DTD/sodipodi-0.dtd"
   xmlns="http://www.w3.org/2000/svg"
   xmlns:svg="http://www.w3.org/2000/svg">
  <sodipodi:namedview
     id="namedview1"
     pagecolor="#ffffff"
     bordercolor="#000000"
     borderopacity="0.25"
     inkscape:showpageshadow="2"
     inkscape:pageopacity="0.0"
     inkscape:pagecheckerboard="true"
     inkscape:deskcolor="#d1d1d1"
     inkscape:document-units="pt"
     inkscape:zoom="2.3986817"
     inkscape:cx="130.27989"
     inkscape:cy="173.4286"
     inkscape:window-width="1934"
     inkscape:window-height="1378"
     inkscape:window-x="610"
     inkscape:window-y="1126"
     inkscape:window-maximized="1"
     inkscape:current-layer="svg1"
     showgrid="false" />
  <defs
     id="defs1" />
  <ellipse
     id="shape0"
     rx="86.369759"
     ry="83.363029"
     cx="98.602531"
     cy="260.62524"
     fill="#ffac68"
     fill-rule="evenodd"
     stroke="#ff6a00"
     stroke-width="11.2732"
     stroke-linecap="square"
     stroke-linejoin="bevel"
     style="stroke-width:16;stroke-dasharray:none;fill:#d45500;stroke:#aa4400" />
  <path
     id="shape1"
     fill="none"
     stroke="#59932b"
     stroke-width="18.7857"
     stroke-linecap="square"
     stroke-linejoin="miter"
     stroke-miterlimit="2"
     d="M 9.8375884,247.65727 246.97918,246.72197"
     sodipodi:nodetypes="cc" />
  <path
     id="shape01"
     fill="none"
     stroke="#00ff00"
     stroke-width="18.7803"
     stroke-linecap="square"
     stroke-linejoin="miter"
     stroke-miterlimit="2"
     d="M 9.3531264,228.57426 246.18666,227.9849"
     sodipodi:nodetypes="cc" />
  <path
     id="path1"
     style="fill:#ff0000;stroke:#800000;stroke-width:13.6998;stroke-dasharray:none"
     d="m 151.25026,11.531556 a 90.83362,85.920774 0 0 0 -90.834245,85.920151 90.83362,85.920774 0 0 0 0.17797,2.34946 72.607657,68.680584 0 0 1 59.700285,-29.80502 72.607657,68.680584 0 0 1 72.60808,68.680993 72.607657,68.680584 0 0 1 -14.25415,40.57767 90.83362,85.920774 0 0 0 63.43502,-81.803103 90.83362,85.920774 0 0 0 -90.83296,-85.920151 z" />
</svg>
