<?xml version="1.0" standalone="no"?>
<!DOCTYPE svg PUBLIC "-//W3C//DTD SVG 20010904//EN" "http://www.w3.org/TR/2001/REC-SVG-20010904/DTD/svg10.dtd">
<!-- Created using Krita: https://krita.org -->
<svg xmlns="http://www.w3.org/2000/svg" 
    xmlns:xlink="http://www.w3.org/1999/xlink"
    xmlns:krita="http://krita.org/namespaces/svg/krita"
    xmlns:sodipodi="http://sodipodi.sourceforge.net/DTD/sodipodi-0.dtd"
    width="61.44pt"
    height="61.44pt"
    viewBox="0 0 61.44 61.44">
<defs/>
<path id="shape0" transform="matrix(0.971455824335548 0 0 0.971455824335548 12.025998683936 5.17704121494468)" fill="#bfbfbf" fill-rule="evenodd" stroke="#000000" stroke-width="1.92" stroke-linecap="square" stroke-linejoin="bevel" d="M0 22.9534L0.742029 14.4448L2.86918 9.3001L5.63942 5.49101L10.3884 1.83034L15.9289 0L22.3598 0.247343L27.1583 2.12715L31.2147 5.0458L33.7871 7.86551L35.7658 11.081L30.4727 14.4448L27.1583 9.79478L22.6071 6.48039L19.2433 5.83729L15.4342 6.43092L11.7241 8.55807L9.34957 10.982L7.51923 13.8017L6.48039 16.7204L6.33198 22.7556C6.26602 22.7226 4.15536 22.7885 0 22.9534Z" sodipodi:nodetypes="cccccccccccccccccccccc"/><rect id="shape01" transform="matrix(1.28436985267204 0 0 1.13885979782764 9.02246376811587 28.245944311924)" fill="#d9d9d9" fill-rule="evenodd" stroke="#000000" stroke-width="2.88" stroke-linecap="square" stroke-linejoin="bevel" width="33.7870531400966" height="26.6442413634348"/><path id="shape2" transform="matrix(1.28436985267204 0 0 1.13885979782764 12.8642015231945 34.9947911447727)" fill="none" stroke="#8c8c8c" stroke-width="1.92" stroke-linecap="square" stroke-linejoin="miter" stroke-miterlimit="2" d="M0 0L26.812 0" sodipodi:nodetypes="cc"/><path id="shape011" transform="matrix(1.28436985267204 0 0 1.13885979782764 13.2793618346934 40.1939238145502)" fill="none" stroke="#8c8c8c" stroke-width="1.92" stroke-linecap="square" stroke-linejoin="miter" stroke-miterlimit="2" d="M0 0L26.812 0" sodipodi:nodetypes="cc"/><path id="shape02" transform="matrix(1.28436985267204 0 0 1.13885979782764 13.2793618346934 45.6630564673126)" fill="none" stroke="#8c8c8c" stroke-width="1.92" stroke-linecap="square" stroke-linejoin="miter" stroke-miterlimit="2" d="M0 0L26.812 0" sodipodi:nodetypes="cc"/><path id="shape03" transform="matrix(1.28436985267204 0 0 1.13885979782764 13.2793618346934 50.2871221396578)" fill="none" stroke="#8c8c8c" stroke-width="1.92" stroke-linecap="square" stroke-linejoin="miter" stroke-miterlimit="2" d="M0 0L26.812 0" sodipodi:nodetypes="cc"/><path id="shape04" transform="matrix(1.28436985267204 0 0 1.13885979782764 13.2793618346934 54.7421744159196)" fill="none" stroke="#8c8c8c" stroke-width="1.92" stroke-linecap="square" stroke-linejoin="miter" stroke-miterlimit="2" d="M0 0L26.812 0" sodipodi:nodetypes="cc"/>
</svg>
